<svg width="15" height="24" xmlns="http://www.w3.org/2000/svg">

 <g>
  <title>background</title>
  <rect fill="none" id="canvas_background" height="402" width="582" y="-1" x="-1"/>
 </g>
 <g>
  <title>Layer 1</title>
  <g stroke="null" id="surface1">
   <path stroke="null" id="svg_1" fill-rule="nonzero" fill="rgb(0%,0%,0%)" d="m13.473268,3.411251c-0.02734,0 -0.24609,0.010653 -0.49219,0.021306c-0.2539,0.010653 -0.57422,0.028405 -0.72656,0.03195c-0.15234,0.010653 -0.56641,0.021306 -0.91406,0.031959c-0.76172,0.021306 -1.1836,0.049711 -1.73047,0.127817c-2.83984,0.404775 -5.39453,1.714941 -7.21094,3.696178c-0.8125,0.891202 -1.47656,1.942179 -1.89844,3.025116c-0.29687,0.76693 -0.48046,1.523206 -0.57812,2.386003c-0.05078,0.415419 -0.05078,1.374074 0,1.789502c0.14453,1.324373 0.51953,2.481861 1.17578,3.625161c0.46484,0.816631 1.01953,1.526751 1.72266,2.222673c0.23437,0.234337 0.79687,0.713674 1.0664,0.923151c1.01953,0.759831 2.10938,1.345678 3.34766,1.768206c0.33203,0.113619 0.84766,0.269841 1.10547,0.326651c0.33984,0.081669 0.42187,0.099421 0.65625,0.145578c0.76172,0.145569 1.33984,0.202379 2.23047,0.223684c0.57031,0.014207 1.03906,0.031959 1.66015,0.063909c0.50391,0.028405 1.41797,0.035513 1.59766,0.021306c0.28906,-0.03195 0.39453,-0.078115 0.39453,-0.181082c0,-0.110065 -0.15234,-0.19528 -0.63281,-0.351511c-0.30469,-0.095858 -0.52735,-0.198834 -0.8086,-0.369262c-1.625,-0.962209 -3.36718,-3.089015 -4.32421,-5.276185c-0.65625,-1.501909 -0.97266,-3.057065 -0.89063,-4.42405c0.05859,-1.104233 0.26172,-2.052244 0.66797,-3.11033c0.85547,-2.236871 2.54297,-4.473751 4.24219,-5.631249c0.39062,-0.266296 0.71875,-0.433171 1.13672,-0.560997c0.43359,-0.134916 0.60937,-0.237882 0.60937,-0.340858c0,-0.152668 -0.21094,-0.19528 -0.93359,-0.19528c-0.23828,0 -0.44922,0.007099 -0.47266,0.010653zm0,0"/>
  </g>
 </g>
</svg>