<?xml version="1.0" encoding="UTF-8"?>
<svg xmlns="http://www.w3.org/2000/svg" xmlns:xlink="http://www.w3.org/1999/xlink" width="30pt" height="26pt" viewBox="0 0 30 26" version="1.1">
<g id="surface1">
<path style=" stroke:none;fill-rule:nonzero;fill:rgb(0%,0%,0%);fill-opacity:1;" d="M 11.71875 0.5625 C 11.476562 0.636719 10.785156 0.914062 10.511719 1.046875 C 10.320312 1.140625 10.132812 1.226562 10.101562 1.234375 C 10 1.257812 9.824219 1.386719 9.753906 1.488281 C 9.546875 1.769531 9.5 2.21875 9.601562 2.855469 C 9.617188 2.960938 9.628906 3.054688 9.625 3.054688 C 9.625 3.058594 9.507812 3.03125 9.363281 2.992188 C 9.03125 2.902344 8.585938 2.875 8.386719 2.929688 C 8.148438 3.003906 8 3.1875 7.972656 3.445312 L 7.957031 3.574219 L 7.847656 3.570312 C 7.703125 3.5625 7.601562 3.511719 7.425781 3.347656 C 7.226562 3.160156 7.183594 3.148438 7.027344 3.222656 C 6.882812 3.292969 6.425781 3.746094 6.132812 4.105469 C 5.902344 4.390625 5.902344 4.390625 5.125 4.46875 C 4.851562 4.496094 4.761719 4.515625 4.683594 4.554688 C 4.476562 4.667969 4.425781 4.847656 4.492188 5.222656 C 4.511719 5.355469 4.53125 5.480469 4.53125 5.503906 C 4.535156 5.535156 4.484375 5.566406 4.324219 5.632812 C 3.636719 5.925781 3.242188 6.210938 3.113281 6.503906 C 3.046875 6.652344 3.0625 6.894531 3.148438 7.085938 C 3.183594 7.164062 3.207031 7.226562 3.207031 7.230469 C 3.203125 7.230469 3.089844 7.289062 2.953125 7.355469 C 2.488281 7.589844 2.160156 7.851562 2.042969 8.082031 C 1.960938 8.25 1.898438 8.640625 1.898438 9.019531 C 1.898438 9.136719 1.890625 9.289062 1.882812 9.355469 L 1.871094 9.472656 L 1.71875 9.480469 C 1.527344 9.484375 1.300781 9.554688 1.175781 9.644531 C 0.945312 9.816406 0.839844 10.070312 0.839844 10.484375 C 0.839844 10.882812 0.929688 11.277344 1.136719 11.789062 C 1.195312 11.9375 1.242188 12.058594 1.242188 12.0625 C 1.242188 12.0625 1.148438 12.0625 1.035156 12.0625 C 0.851562 12.0625 0.816406 12.070312 0.734375 12.128906 C 0.554688 12.246094 0.492188 12.492188 0.535156 12.910156 C 0.59375 13.476562 0.785156 13.945312 1.167969 14.457031 L 1.328125 14.667969 L 1.261719 15.167969 C 1.207031 15.605469 1.203125 15.679688 1.230469 15.769531 C 1.269531 15.898438 1.425781 16.191406 1.648438 16.539062 C 1.785156 16.753906 1.851562 16.890625 1.945312 17.152344 C 2.109375 17.609375 2.332031 18.160156 2.433594 18.359375 C 2.585938 18.667969 2.628906 18.703125 2.75 18.605469 C 2.785156 18.578125 2.816406 18.558594 2.820312 18.5625 C 2.824219 18.570312 2.855469 18.683594 2.890625 18.820312 C 3.023438 19.328125 3.214844 19.734375 3.429688 19.972656 C 3.605469 20.160156 3.734375 20.222656 3.980469 20.230469 C 4.152344 20.242188 4.171875 20.246094 4.15625 20.28125 C 4.121094 20.367188 4.121094 20.648438 4.152344 20.730469 C 4.230469 20.914062 4.460938 21.101562 4.730469 21.203125 C 4.824219 21.238281 5.929688 21.460938 6.011719 21.460938 C 6.015625 21.460938 6.003906 21.5 5.984375 21.542969 C 5.839844 21.894531 6.15625 22.519531 6.882812 23.3125 C 7.285156 23.753906 7.621094 24.058594 7.902344 24.238281 C 8.035156 24.324219 8.15625 24.398438 8.171875 24.402344 C 8.25 24.433594 7.894531 23.660156 7.621094 23.195312 C 7.527344 23.039062 7.410156 22.824219 7.355469 22.722656 C 7.277344 22.5625 7.265625 22.519531 7.285156 22.480469 C 7.316406 22.425781 7.421875 22.390625 7.632812 22.375 L 7.777344 22.363281 L 7.921875 22.632812 C 8.097656 22.96875 8.335938 23.355469 8.484375 23.5625 C 8.738281 23.90625 9.050781 24.128906 9.761719 24.480469 C 10.386719 24.789062 10.855469 24.976562 10.851562 24.914062 C 10.847656 24.894531 10.667969 24.757812 10.175781 24.414062 C 9.671875 24.0625 9.359375 23.75 9.308594 23.542969 C 9.277344 23.433594 9.21875 23.078125 9.203125 22.894531 C 9.191406 22.785156 9.195312 22.757812 9.222656 22.757812 C 9.300781 22.757812 9.777344 22.9375 9.988281 23.046875 C 10.15625 23.132812 10.25 23.199219 10.332031 23.289062 C 10.433594 23.402344 10.449219 23.433594 10.503906 23.660156 C 10.644531 24.234375 10.917969 24.570312 11.328125 24.679688 C 11.5 24.730469 11.796875 24.722656 12.046875 24.667969 C 12.121094 24.652344 12.261719 24.644531 12.386719 24.652344 C 12.773438 24.675781 13.160156 24.839844 13.574219 25.152344 C 13.835938 25.355469 13.882812 25.378906 13.90625 25.324219 C 13.929688 25.257812 13.847656 25.136719 13.648438 24.929688 C 13.425781 24.699219 13.222656 24.546875 12.976562 24.4375 C 12.769531 24.34375 12.34375 24.207031 12.191406 24.1875 C 12.078125 24.171875 12.054688 24.15625 11.898438 24.003906 C 11.742188 23.847656 11.609375 23.660156 11.46875 23.390625 C 11.40625 23.273438 11.367188 23.085938 11.367188 22.90625 L 11.367188 22.78125 L 11.734375 23.15625 C 12.4375 23.867188 12.773438 24.050781 13.5 24.128906 C 14.230469 24.203125 14.429688 24.292969 14.988281 24.800781 C 15.355469 25.132812 15.582031 25.289062 15.804688 25.355469 C 16.121094 25.457031 16.347656 25.390625 16.835938 25.070312 C 17.375 24.722656 17.464844 24.699219 17.851562 24.804688 C 18.234375 24.914062 18.382812 24.9375 18.617188 24.917969 C 18.929688 24.894531 19.238281 24.804688 19.558594 24.648438 C 19.984375 24.4375 20.199219 24.253906 20.117188 24.175781 C 20.09375 24.148438 19.5 24.199219 18.960938 24.277344 C 18.386719 24.355469 18.34375 24.347656 17.871094 24.183594 L 17.472656 24.042969 L 17.203125 24.046875 C 16.863281 24.050781 16.65625 24.105469 16.292969 24.28125 C 16.035156 24.40625 16.023438 24.40625 15.917969 24.382812 C 15.695312 24.335938 15.496094 24.183594 15.300781 23.921875 C 15.085938 23.628906 14.914062 23.492188 14.714844 23.445312 C 14.339844 23.359375 13.953125 23.089844 13.585938 22.65625 C 13.519531 22.582031 13.472656 22.519531 13.480469 22.511719 C 13.492188 22.496094 14.40625 22.664062 15.179688 22.820312 C 15.757812 22.933594 15.867188 22.964844 16.332031 23.132812 C 16.914062 23.347656 17.113281 23.394531 17.398438 23.394531 C 17.632812 23.394531 17.839844 23.335938 18.230469 23.164062 C 18.5 23.039062 18.722656 22.960938 18.894531 22.9375 C 18.988281 22.925781 19.058594 22.945312 19.46875 23.085938 C 20.082031 23.300781 20.242188 23.363281 20.808594 23.589844 L 21.285156 23.78125 L 21.453125 23.753906 C 21.652344 23.71875 22.492188 23.441406 22.800781 23.304688 C 23.027344 23.207031 23.148438 23.121094 23.113281 23.085938 C 23.070312 23.039062 21.882812 22.878906 21.265625 22.835938 L 21.003906 22.8125 L 20.609375 22.578125 C 19.785156 22.082031 19.613281 22 19.320312 21.957031 C 19.070312 21.917969 18.828125 21.960938 18.300781 22.132812 C 17.578125 22.371094 17.457031 22.382812 17.136719 22.25 C 16.824219 22.121094 15.765625 21.644531 15.742188 21.628906 C 15.707031 21.59375 17.699219 21.289062 18.15625 21.257812 C 18.425781 21.242188 18.546875 21.265625 18.890625 21.425781 C 19.175781 21.5625 19.375 21.628906 19.480469 21.628906 C 19.578125 21.628906 19.792969 21.546875 20.226562 21.347656 C 20.910156 21.039062 21.078125 21.019531 21.695312 21.199219 C 22.167969 21.339844 22.449219 21.4375 22.683594 21.546875 C 22.9375 21.664062 23.007812 21.65625 23.433594 21.472656 C 23.691406 21.363281 23.953125 21.390625 24.425781 21.582031 L 24.652344 21.671875 L 24.800781 21.640625 C 25.128906 21.570312 25.960938 21.242188 26.089844 21.132812 C 26.132812 21.097656 26.160156 21.058594 26.152344 21.050781 C 26.117188 21.015625 25.273438 20.90625 24.75 20.871094 C 24.496094 20.855469 24.308594 20.828125 24.203125 20.796875 C 24.015625 20.742188 23.910156 20.746094 23.636719 20.835938 C 23.535156 20.871094 23.382812 20.902344 23.296875 20.910156 L 23.144531 20.921875 L 22.777344 20.734375 C 22.578125 20.632812 22.320312 20.492188 22.207031 20.414062 C 21.839844 20.175781 21.542969 20.171875 20.664062 20.402344 C 20.328125 20.488281 19.976562 20.527344 19.765625 20.496094 C 19.527344 20.46875 18.589844 20.121094 18.171875 19.910156 L 17.992188 19.820312 L 18.53125 19.800781 C 19.652344 19.769531 20.886719 19.699219 21.105469 19.65625 C 21.144531 19.648438 21.335938 19.597656 21.527344 19.539062 C 21.980469 19.40625 22.148438 19.378906 22.425781 19.390625 C 22.707031 19.402344 22.859375 19.46875 23.167969 19.710938 C 23.574219 20.035156 23.769531 20.097656 24.375 20.105469 C 24.664062 20.105469 24.765625 20.097656 24.886719 20.0625 C 25.089844 20 25.289062 19.867188 25.375 19.734375 C 25.433594 19.640625 25.460938 19.617188 25.570312 19.585938 C 25.777344 19.519531 26.480469 19.347656 26.667969 19.316406 C 26.78125 19.292969 26.835938 19.273438 26.835938 19.253906 C 26.835938 19.140625 25.785156 18.871094 25.457031 18.898438 C 25.328125 18.90625 25.25 18.9375 24.90625 19.109375 C 24.355469 19.386719 24.359375 19.386719 24.132812 19.292969 C 24.03125 19.25 23.835938 19.144531 23.699219 19.0625 C 23.214844 18.761719 23.140625 18.722656 22.96875 18.667969 C 22.609375 18.554688 22.34375 18.566406 21.8125 18.71875 C 21.371094 18.84375 21.171875 18.859375 20.878906 18.8125 C 20.191406 18.691406 19.863281 18.523438 19.757812 18.238281 C 19.703125 18.09375 19.648438 17.617188 19.679688 17.5625 C 19.695312 17.539062 19.761719 17.566406 19.980469 17.691406 C 20.667969 18.089844 21.300781 18.277344 21.695312 18.207031 C 21.910156 18.167969 22.164062 18.070312 22.429688 17.914062 C 23.058594 17.542969 23.339844 17.453125 23.707031 17.503906 C 23.921875 17.535156 24.082031 17.601562 24.363281 17.78125 C 24.777344 18.046875 25.050781 18.144531 25.257812 18.089844 C 25.4375 18.042969 25.542969 17.976562 25.75 17.769531 C 25.972656 17.542969 26.109375 17.445312 26.253906 17.394531 C 26.402344 17.339844 26.679688 17.347656 26.945312 17.417969 C 27.242188 17.496094 27.324219 17.492188 27.554688 17.398438 C 27.886719 17.261719 28.097656 17.109375 28.039062 17.050781 C 28.011719 17.023438 27.5 16.875 27.234375 16.816406 C 27.113281 16.789062 26.957031 16.742188 26.886719 16.707031 C 26.78125 16.65625 26.734375 16.648438 26.617188 16.65625 C 26.453125 16.664062 26.207031 16.769531 25.972656 16.929688 C 25.894531 16.984375 25.757812 17.0625 25.671875 17.109375 C 25.242188 17.324219 24.988281 17.28125 24.492188 16.90625 C 24.164062 16.660156 24.03125 16.597656 23.792969 16.585938 C 23.542969 16.570312 23.382812 16.605469 22.957031 16.761719 C 22.527344 16.917969 21.546875 17.167969 21.355469 17.167969 C 20.984375 17.167969 20.671875 16.9375 20.429688 16.484375 C 20.335938 16.308594 20.214844 15.992188 20.234375 15.972656 C 20.242188 15.96875 20.359375 15.992188 20.5 16.023438 C 20.972656 16.132812 21.175781 16.160156 21.515625 16.152344 C 21.910156 16.140625 22.078125 16.085938 22.664062 15.789062 C 23.1875 15.527344 23.425781 15.445312 23.722656 15.429688 C 23.933594 15.417969 23.96875 15.425781 24.355469 15.53125 C 25 15.710938 25.0625 15.707031 25.597656 15.457031 C 25.742188 15.386719 25.917969 15.320312 25.984375 15.308594 C 26.195312 15.269531 26.378906 15.339844 26.707031 15.582031 C 26.957031 15.765625 27.003906 15.792969 27.132812 15.847656 C 27.375 15.941406 27.363281 15.945312 27.664062 15.683594 C 27.8125 15.554688 28.027344 15.359375 28.140625 15.25 C 28.390625 15.007812 28.378906 14.988281 28.035156 15.070312 C 27.910156 15.097656 27.730469 15.132812 27.636719 15.148438 C 27.441406 15.179688 27.484375 15.195312 27.09375 14.957031 C 26.707031 14.71875 26.15625 14.550781 25.777344 14.550781 C 25.574219 14.550781 25.421875 14.585938 25.039062 14.714844 C 24.734375 14.820312 24.441406 14.867188 24.285156 14.835938 C 24.15625 14.8125 23.703125 14.585938 23.457031 14.417969 L 23.261719 14.289062 L 23.074219 14.296875 C 22.847656 14.3125 22.65625 14.382812 22.320312 14.59375 C 21.675781 14.992188 21.429688 15.019531 21.167969 14.734375 C 20.984375 14.53125 20.734375 14.199219 20.75 14.179688 C 20.753906 14.175781 20.925781 14.164062 21.132812 14.152344 C 22.007812 14.09375 22.695312 13.953125 23.039062 13.757812 C 23.097656 13.722656 23.234375 13.640625 23.34375 13.570312 C 23.613281 13.402344 23.804688 13.328125 24.042969 13.300781 C 24.34375 13.265625 24.507812 13.304688 25.007812 13.546875 C 25.445312 13.757812 25.628906 13.820312 25.835938 13.820312 C 26.007812 13.820312 26.339844 13.734375 26.671875 13.601562 C 27.015625 13.464844 27.285156 13.386719 27.539062 13.347656 C 27.75 13.320312 27.972656 13.339844 29 13.46875 C 29.207031 13.496094 29.378906 13.507812 29.386719 13.503906 C 29.394531 13.496094 29.386719 13.464844 29.371094 13.433594 C 29.316406 13.3125 28.585938 12.902344 28.195312 12.769531 C 27.839844 12.652344 27.703125 12.671875 26.578125 13.027344 C 26.453125 13.066406 26.359375 13.074219 26.039062 13.074219 C 25.660156 13.074219 25.648438 13.074219 25.457031 13.003906 C 25.347656 12.960938 25.15625 12.867188 25.027344 12.796875 C 24.789062 12.660156 24.582031 12.566406 24.386719 12.503906 C 24.238281 12.457031 23.761719 12.453125 22.195312 12.496094 C 21.558594 12.515625 20.996094 12.527344 20.953125 12.519531 C 20.878906 12.511719 20.890625 12.503906 21.140625 12.394531 C 22.09375 11.988281 22.414062 11.835938 22.675781 11.667969 C 23.121094 11.390625 23.230469 11.34375 23.453125 11.34375 C 23.652344 11.34375 23.863281 11.417969 24.238281 11.632812 C 24.640625 11.855469 24.664062 11.867188 24.972656 11.953125 C 25.355469 12.0625 25.699219 12.128906 25.910156 12.132812 C 26.089844 12.132812 26.105469 12.128906 26.351562 12.007812 C 26.492188 11.941406 26.65625 11.855469 26.714844 11.820312 C 26.773438 11.78125 26.878906 11.734375 26.949219 11.710938 C 27.078125 11.667969 27.144531 11.667969 27.835938 11.710938 C 28.230469 11.738281 28.484375 11.667969 28.636719 11.5 C 28.726562 11.394531 28.75 11.324219 28.703125 11.28125 C 28.683594 11.257812 28.554688 11.214844 28.417969 11.175781 C 28.066406 11.082031 27.847656 10.992188 27.539062 10.8125 C 27.179688 10.609375 27.144531 10.609375 26.773438 10.804688 L 26.496094 10.953125 L 26.191406 10.980469 C 25.75 11.027344 25.050781 11.023438 24.878906 10.980469 C 24.679688 10.925781 24.449219 10.8125 24.152344 10.613281 C 23.824219 10.394531 23.621094 10.292969 23.421875 10.246094 C 23.117188 10.175781 22.929688 10.230469 22.503906 10.527344 C 22.363281 10.625 22.199219 10.726562 22.132812 10.75 C 21.875 10.851562 21.496094 10.832031 21.113281 10.695312 C 20.894531 10.613281 20.519531 10.4375 20.5 10.40625 C 20.472656 10.359375 20.554688 10.019531 20.628906 9.867188 C 20.703125 9.707031 20.792969 9.628906 20.917969 9.597656 C 21.042969 9.570312 21.796875 9.703125 21.945312 9.78125 C 22.039062 9.832031 22.328125 9.8125 22.757812 9.726562 C 23.140625 9.652344 23.472656 9.644531 23.695312 9.703125 C 23.78125 9.722656 24.011719 9.820312 24.210938 9.917969 C 24.640625 10.125 24.699219 10.140625 24.964844 10.140625 C 25.234375 10.140625 25.453125 10.097656 26.007812 9.925781 C 26.570312 9.753906 26.625 9.75 27 9.867188 C 28.078125 10.207031 28.234375 10.242188 28.339844 10.1875 C 28.457031 10.125 28.457031 10.097656 28.320312 9.953125 C 28.132812 9.75 27.671875 9.417969 27.359375 9.261719 C 26.894531 9.027344 26.632812 9.011719 26.015625 9.175781 C 25.382812 9.34375 25.175781 9.324219 24.566406 9.046875 C 24.214844 8.882812 24.085938 8.84375 23.867188 8.824219 C 23.625 8.800781 23.457031 8.824219 23.097656 8.945312 C 22.820312 9.035156 22.769531 9.042969 22.558594 9.042969 C 22.261719 9.042969 22.179688 9.003906 21.949219 8.753906 C 21.625 8.402344 21.535156 8.320312 21.402344 8.257812 C 21.28125 8.203125 21.242188 8.195312 21.011719 8.199219 C 20.722656 8.199219 20.511719 8.253906 20.128906 8.417969 C 20.011719 8.46875 19.90625 8.507812 19.90625 8.503906 C 19.886719 8.484375 20.316406 8.070312 20.472656 7.949219 C 20.785156 7.714844 21.109375 7.597656 21.371094 7.628906 C 21.445312 7.640625 21.6875 7.707031 21.914062 7.785156 C 22.140625 7.859375 22.410156 7.9375 22.515625 7.953125 C 22.699219 7.980469 22.714844 7.980469 22.996094 7.902344 C 23.152344 7.859375 23.488281 7.757812 23.738281 7.675781 C 24.132812 7.542969 24.210938 7.523438 24.367188 7.523438 C 24.6875 7.523438 25.085938 7.636719 25.550781 7.855469 C 25.804688 7.980469 25.808594 7.980469 25.917969 7.953125 C 26.066406 7.914062 26.617188 7.636719 27.007812 7.402344 C 27.484375 7.117188 27.621094 6.980469 27.4375 6.980469 C 27.273438 6.980469 26.597656 7.082031 26.269531 7.152344 C 26.085938 7.1875 25.902344 7.226562 25.859375 7.234375 C 25.808594 7.242188 25.671875 7.207031 25.414062 7.113281 C 24.671875 6.851562 24.445312 6.792969 24.183594 6.792969 C 23.949219 6.792969 23.699219 6.847656 23.359375 6.980469 C 23.054688 7.097656 22.792969 7.164062 22.59375 7.183594 C 22.402344 7.203125 22.234375 7.160156 21.878906 7.011719 C 21.738281 6.953125 21.535156 6.867188 21.429688 6.824219 C 21.175781 6.71875 20.933594 6.679688 20.726562 6.71875 C 20.546875 6.753906 20.398438 6.824219 20.179688 6.984375 C 20.089844 7.046875 19.960938 7.128906 19.886719 7.160156 C 19.769531 7.214844 19.730469 7.222656 19.59375 7.210938 C 19.398438 7.195312 19.132812 7.09375 18.867188 6.933594 C 18.539062 6.734375 18.542969 6.753906 18.824219 6.585938 C 19.363281 6.269531 19.835938 6.070312 20.28125 5.96875 C 20.574219 5.898438 20.875 5.910156 21.257812 6.003906 C 21.480469 6.058594 21.578125 6.070312 21.832031 6.074219 C 22.117188 6.074219 22.144531 6.070312 22.269531 6.007812 C 22.34375 5.972656 22.507812 5.863281 22.640625 5.765625 C 23.0625 5.457031 23.265625 5.394531 23.714844 5.445312 C 24.027344 5.472656 24.25 5.554688 24.511719 5.722656 C 24.734375 5.867188 24.84375 5.890625 25.171875 5.867188 C 25.710938 5.824219 26.613281 5.484375 26.613281 5.320312 C 26.613281 5.253906 26.535156 5.242188 25.945312 5.203125 C 25.164062 5.152344 25.015625 5.109375 24.671875 4.863281 C 24.421875 4.679688 24.300781 4.613281 24.117188 4.550781 C 23.980469 4.503906 23.9375 4.5 23.636719 4.515625 C 23.03125 4.542969 22.894531 4.582031 22.484375 4.871094 C 21.972656 5.230469 21.648438 5.28125 21.121094 5.09375 C 20.398438 4.832031 20.28125 4.828125 19.570312 5.058594 C 19.355469 5.128906 19.109375 5.199219 19.019531 5.214844 C 18.726562 5.265625 18.085938 5.21875 17.496094 5.105469 C 17.285156 5.0625 16.609375 4.902344 16.597656 4.890625 C 16.589844 4.886719 16.667969 4.789062 16.761719 4.679688 C 17.082031 4.296875 17.371094 4.101562 17.785156 3.992188 C 17.980469 3.941406 18.0625 3.929688 18.386719 3.929688 C 18.816406 3.925781 18.882812 3.941406 19.371094 4.167969 C 20.191406 4.542969 20.480469 4.527344 21.191406 4.054688 C 21.722656 3.707031 22.007812 3.621094 22.367188 3.71875 C 22.574219 3.769531 22.902344 3.753906 23.125 3.675781 C 23.351562 3.59375 23.582031 3.433594 23.785156 3.222656 C 24.015625 2.972656 24.109375 2.78125 24.007812 2.742188 C 23.984375 2.734375 23.785156 2.753906 23.558594 2.78125 C 22.910156 2.867188 22.695312 2.871094 22.363281 2.804688 L 22.082031 2.753906 L 21.949219 2.816406 C 21.859375 2.859375 21.71875 2.976562 21.515625 3.175781 C 21.335938 3.34375 21.164062 3.492188 21.097656 3.527344 C 20.832031 3.65625 20.390625 3.699219 20.039062 3.621094 C 19.941406 3.601562 19.601562 3.496094 19.277344 3.382812 C 18.078125 2.972656 17.855469 2.972656 16.757812 3.339844 C 15.910156 3.625 15.824219 3.644531 15.28125 3.640625 C 14.78125 3.640625 14.476562 3.617188 13.785156 3.519531 L 13.332031 3.460938 L 13.191406 3.355469 C 12.941406 3.164062 12.773438 2.933594 12.773438 2.773438 C 12.773438 2.648438 12.828125 2.644531 13.332031 2.738281 C 13.683594 2.800781 13.824219 2.820312 14.0625 2.816406 C 14.335938 2.816406 14.371094 2.808594 14.601562 2.730469 C 14.738281 2.683594 15.042969 2.558594 15.28125 2.453125 C 15.519531 2.347656 15.824219 2.222656 15.960938 2.175781 C 16.207031 2.09375 16.207031 2.09375 16.402344 2.121094 C 16.671875 2.15625 16.976562 2.257812 17.421875 2.460938 C 18.078125 2.757812 18.3125 2.820312 18.769531 2.800781 C 19.035156 2.789062 19.152344 2.765625 19.816406 2.609375 C 21.210938 2.277344 21.765625 2.09375 21.535156 2.039062 C 21.414062 2.015625 20.410156 1.90625 19.921875 1.871094 L 19.394531 1.835938 L 19.054688 1.699219 C 18.183594 1.347656 17.535156 1.1875 16.761719 1.128906 C 16.375 1.097656 15.953125 1.121094 15.660156 1.191406 C 15.472656 1.234375 15.199219 1.363281 14.828125 1.582031 C 14.503906 1.765625 14.316406 1.847656 14.066406 1.914062 C 13.71875 2.003906 13.496094 1.957031 12.949219 1.6875 C 12.609375 1.519531 12.453125 1.460938 12.285156 1.429688 C 12.210938 1.414062 12.195312 1.425781 12.050781 1.574219 C 11.898438 1.734375 11.464844 2.242188 11.085938 2.707031 C 10.894531 2.9375 10.886719 2.945312 10.84375 2.90625 C 10.644531 2.730469 10.636719 2.132812 10.832031 1.765625 C 10.976562 1.492188 11.335938 1.21875 11.714844 1.089844 C 11.875 1.035156 11.933594 1.027344 12.246094 1.027344 C 12.539062 1.027344 12.632812 1.035156 12.804688 1.082031 C 13.246094 1.195312 13.609375 1.195312 13.859375 1.074219 C 13.976562 1.015625 14.058594 0.957031 14.035156 0.933594 C 14.03125 0.929688 13.84375 0.902344 13.617188 0.871094 C 13.140625 0.8125 12.355469 0.683594 12 0.605469 C 11.863281 0.574219 11.738281 0.554688 11.71875 0.5625 Z M 11.277344 3.796875 C 13.308594 3.894531 14.964844 4.507812 16.484375 5.730469 C 17.933594 6.894531 19.007812 8.417969 19.53125 10.0625 C 20.082031 11.789062 20.109375 13.824219 19.601562 15.582031 C 19.179688 17.046875 18.375 18.371094 17.199219 19.515625 C 16.25 20.445312 15.226562 21.105469 14.070312 21.539062 C 12.429688 22.15625 10.433594 22.265625 8.675781 21.835938 C 7.980469 21.664062 7.164062 21.351562 6.589844 21.03125 L 6.414062 20.9375 L 6.515625 20.84375 C 6.660156 20.710938 6.917969 20.59375 7.136719 20.554688 C 7.484375 20.492188 8.25 20.519531 9.101562 20.625 C 9.359375 20.65625 9.582031 20.683594 9.601562 20.683594 C 9.675781 20.683594 9.621094 20.640625 9.429688 20.542969 C 8.964844 20.3125 8.425781 20.152344 7.726562 20.046875 C 7.234375 19.972656 6.777344 19.949219 5.851562 19.957031 L 5.011719 19.960938 L 4.929688 19.878906 C 4.867188 19.816406 4.851562 19.789062 4.863281 19.742188 C 4.902344 19.582031 5.078125 19.492188 5.421875 19.453125 C 5.617188 19.429688 5.699219 19.429688 5.816406 19.457031 C 6.183594 19.53125 6.261719 19.519531 6.5 19.363281 C 6.984375 19.042969 7.085938 19.039062 7.910156 19.273438 C 8.351562 19.398438 8.855469 19.503906 8.875 19.476562 C 8.890625 19.449219 8.351562 18.90625 7.992188 18.585938 C 7.691406 18.320312 7.425781 18.136719 7.335938 18.136719 C 7.222656 18.136719 6.84375 18.246094 6.519531 18.371094 C 6.019531 18.5625 5.792969 18.605469 5.578125 18.539062 C 5.480469 18.507812 5.289062 18.480469 4.21875 18.335938 C 3.5 18.238281 3.429688 18.226562 3.394531 18.175781 C 3.371094 18.148438 3.351562 18.105469 3.351562 18.082031 C 3.351562 17.980469 3.8125 17.585938 3.976562 17.554688 C 4.039062 17.542969 4.078125 17.558594 4.191406 17.628906 C 4.367188 17.734375 4.648438 17.839844 4.867188 17.878906 C 5.140625 17.925781 5.632812 17.894531 6.128906 17.800781 C 6.359375 17.753906 6.613281 17.710938 6.6875 17.699219 C 6.777344 17.691406 6.820312 17.675781 6.8125 17.65625 C 6.796875 17.609375 6.5625 17.457031 6.382812 17.382812 C 6.144531 17.28125 5.792969 17.203125 5.382812 17.15625 L 5.03125 17.117188 L 4.855469 16.984375 C 4.753906 16.914062 4.578125 16.78125 4.460938 16.683594 C 4.085938 16.382812 3.902344 16.28125 3.65625 16.238281 C 3.597656 16.230469 3.460938 16.257812 3.175781 16.335938 C 2.480469 16.527344 2.503906 16.519531 2.457031 16.460938 C 2.433594 16.433594 2.414062 16.386719 2.414062 16.355469 C 2.414062 16.265625 2.539062 16.117188 2.6875 16.046875 C 2.816406 15.984375 2.84375 15.980469 3.09375 15.980469 C 3.242188 15.984375 3.570312 16.011719 3.832031 16.050781 C 4.667969 16.164062 5.023438 16.140625 5.679688 15.917969 C 6.160156 15.757812 6.921875 15.367188 6.910156 15.289062 C 6.894531 15.207031 6.648438 15.207031 6.019531 15.292969 C 5.628906 15.347656 5 15.382812 4.808594 15.355469 C 4.609375 15.332031 4.390625 15.234375 4.175781 15.074219 C 3.761719 14.769531 3.730469 14.761719 2.789062 14.746094 C 2.371094 14.742188 2.007812 14.734375 1.980469 14.730469 C 1.953125 14.722656 1.921875 14.6875 1.90625 14.644531 C 1.882812 14.582031 1.882812 14.570312 1.9375 14.53125 C 2 14.480469 2.203125 14.425781 2.472656 14.386719 C 2.851562 14.332031 2.921875 14.320312 3.046875 14.269531 C 3.117188 14.246094 3.261719 14.167969 3.363281 14.105469 C 3.601562 13.953125 3.769531 13.890625 3.964844 13.871094 C 4.167969 13.859375 4.332031 13.890625 4.804688 14.046875 C 5.40625 14.242188 5.5625 14.277344 5.917969 14.273438 C 6.371094 14.273438 6.730469 14.1875 7.171875 13.96875 C 7.449219 13.828125 7.640625 13.65625 7.640625 13.542969 C 7.640625 13.5 7.628906 13.46875 7.613281 13.46875 C 7.597656 13.46875 7.449219 13.519531 7.289062 13.585938 C 6.839844 13.761719 6.492188 13.808594 6.152344 13.738281 C 5.96875 13.699219 5.5 13.472656 4.933594 13.148438 C 4.261719 12.765625 4.042969 12.71875 3.460938 12.851562 C 3.03125 12.949219 2.835938 12.949219 2.546875 12.855469 C 2.015625 12.675781 1.785156 12.449219 1.78125 12.113281 C 1.78125 11.972656 1.785156 11.972656 1.90625 11.851562 C 1.976562 11.78125 2.105469 11.695312 2.195312 11.648438 C 2.332031 11.582031 2.382812 11.570312 2.558594 11.5625 C 2.746094 11.550781 2.777344 11.558594 2.914062 11.621094 C 2.996094 11.660156 3.191406 11.78125 3.351562 11.886719 C 3.765625 12.167969 3.828125 12.1875 4.226562 12.21875 C 5.050781 12.273438 5.5 12.222656 5.386719 12.085938 C 5.316406 11.996094 4.988281 11.808594 4.378906 11.503906 C 3.652344 11.140625 3.617188 11.113281 3.476562 10.804688 C 3.148438 10.089844 3.089844 10.027344 2.605469 9.882812 C 2.46875 9.847656 2.351562 9.804688 2.339844 9.792969 C 2.300781 9.753906 2.339844 9.628906 2.40625 9.578125 C 2.492188 9.507812 2.851562 9.375 3.855469 9.03125 C 4.835938 8.699219 5.199219 8.5625 5.457031 8.433594 C 5.875 8.222656 6.101562 8.226562 7.054688 8.457031 C 7.605469 8.585938 7.886719 8.625 8.066406 8.585938 C 8.203125 8.558594 8.40625 8.445312 8.601562 8.277344 C 8.761719 8.148438 8.988281 7.996094 9.128906 7.933594 C 9.320312 7.84375 9.964844 7.746094 10.546875 7.714844 L 10.863281 7.699219 L 10.75 7.644531 C 10.433594 7.5 9.925781 7.40625 9.472656 7.40625 C 9.21875 7.40625 9.128906 7.417969 8.816406 7.492188 C 8.613281 7.535156 8.328125 7.617188 8.179688 7.667969 C 8.03125 7.722656 7.878906 7.769531 7.839844 7.777344 C 7.761719 7.789062 7.191406 7.675781 6.796875 7.570312 C 6.648438 7.53125 6.335938 7.449219 6.109375 7.390625 L 5.6875 7.28125 L 5.101562 7.335938 C 4.691406 7.367188 4.375 7.382812 4.066406 7.378906 L 3.621094 7.371094 L 3.773438 7.214844 C 3.890625 7.097656 3.957031 7.046875 4.066406 7.003906 C 4.253906 6.9375 4.570312 6.871094 4.824219 6.851562 C 5.066406 6.832031 5.921875 6.871094 6.570312 6.925781 L 7.035156 6.96875 L 7.273438 6.914062 C 7.765625 6.800781 8.859375 6.40625 8.859375 6.339844 C 8.859375 6.3125 8.75 6.328125 8.28125 6.417969 C 7.855469 6.496094 7.460938 6.539062 7.316406 6.519531 C 7.164062 6.5 6.539062 6.3125 6.207031 6.1875 C 5.886719 6.066406 5.699219 6.039062 5.222656 6.039062 C 5.042969 6.039062 4.898438 6.03125 4.898438 6.019531 C 4.898438 6.007812 4.925781 5.984375 4.957031 5.960938 C 5.03125 5.90625 5.28125 5.882812 6.046875 5.847656 C 7.242188 5.800781 7.421875 5.78125 7.875 5.699219 C 8.113281 5.652344 8.347656 5.609375 8.394531 5.605469 C 8.453125 5.59375 8.589844 5.617188 8.855469 5.683594 C 9.398438 5.820312 9.886719 5.902344 9.816406 5.839844 C 9.777344 5.804688 9.21875 5.484375 9.007812 5.378906 C 8.492188 5.109375 8.261719 5.058594 7.628906 5.082031 C 7.136719 5.097656 6.628906 5.070312 6.441406 5.015625 L 6.339844 4.984375 L 6.527344 4.875 C 6.710938 4.765625 6.71875 4.765625 6.914062 4.765625 C 7.332031 4.765625 7.589844 4.804688 7.921875 4.90625 C 8.398438 5.054688 8.421875 5.054688 9.070312 4.886719 C 9.722656 4.71875 9.921875 4.683594 10.113281 4.699219 C 10.308594 4.722656 10.878906 4.871094 11.035156 4.941406 C 11.183594 5.007812 11.234375 4.992188 11.171875 4.894531 C 11.113281 4.804688 10.777344 4.5625 10.566406 4.457031 C 10.46875 4.40625 10.316406 4.347656 10.234375 4.324219 C 10.089844 4.289062 10.054688 4.289062 9.734375 4.324219 C 9.542969 4.347656 9.285156 4.382812 9.164062 4.40625 C 8.980469 4.445312 8.898438 4.449219 8.691406 4.429688 C 8.285156 4.398438 7.898438 4.308594 7.949219 4.257812 C 7.953125 4.25 8.042969 4.222656 8.144531 4.199219 C 8.316406 4.152344 8.40625 4.152344 9.378906 4.152344 C 10.148438 4.152344 10.433594 4.144531 10.445312 4.121094 C 10.46875 4.082031 10.378906 4.023438 10.152344 3.941406 C 10.035156 3.898438 9.9375 3.855469 9.9375 3.84375 C 9.9375 3.816406 9.917969 3.820312 10.371094 3.796875 C 10.578125 3.789062 10.757812 3.78125 10.769531 3.777344 C 10.785156 3.777344 11.011719 3.785156 11.277344 3.796875 Z M 11.277344 3.796875 "/>
<path style=" stroke:none;fill-rule:nonzero;fill:rgb(0%,0%,0%);fill-opacity:1;" d="M 6.558594 9.269531 C 6.113281 9.324219 5.566406 9.558594 5.140625 9.878906 C 4.9375 10.03125 4.828125 10.152344 4.753906 10.320312 C 4.6875 10.472656 4.703125 10.546875 4.808594 10.574219 C 4.960938 10.609375 5.265625 10.417969 5.714844 10.015625 C 5.894531 9.855469 6.273438 9.660156 6.5 9.613281 C 6.789062 9.550781 7 9.625 7.335938 9.902344 C 7.445312 9.996094 7.609375 10.121094 7.703125 10.183594 C 7.878906 10.304688 8.019531 10.347656 8.566406 10.449219 C 8.847656 10.5 8.96875 10.554688 9.226562 10.753906 C 9.542969 10.992188 9.988281 11.496094 10.128906 11.777344 C 10.191406 11.902344 10.214844 12.253906 10.191406 12.652344 C 10.179688 12.90625 10.167969 12.960938 10.082031 13.1875 C 10.015625 13.359375 9.984375 13.476562 9.984375 13.554688 C 9.984375 13.824219 10.214844 13.960938 10.464844 13.847656 C 10.675781 13.746094 10.714844 13.628906 10.65625 13.269531 C 10.632812 13.144531 10.605469 12.824219 10.59375 12.554688 C 10.558594 11.84375 10.488281 11.4375 10.359375 11.179688 C 10.320312 11.097656 9.976562 10.792969 9.710938 10.605469 C 9.578125 10.507812 9.328125 10.382812 8.773438 10.128906 C 8.511719 10.007812 8.277344 9.878906 7.996094 9.695312 C 7.773438 9.550781 7.542969 9.410156 7.488281 9.382812 C 7.269531 9.285156 6.839844 9.234375 6.558594 9.269531 Z M 6.558594 9.269531 "/>
<path style=" stroke:none;fill-rule:nonzero;fill:rgb(0%,0%,0%);fill-opacity:1;" d="M 15.214844 9.46875 C 14.960938 9.515625 14.746094 9.585938 14.378906 9.742188 C 14.144531 9.84375 13.9375 9.90625 13.652344 9.972656 C 13.152344 10.09375 12.757812 10.257812 12.160156 10.59375 L 11.910156 10.734375 L 11.8125 10.949219 C 11.757812 11.070312 11.6875 11.238281 11.65625 11.328125 L 11.597656 11.492188 L 11.605469 12.664062 C 11.613281 13.804688 11.617188 13.835938 11.667969 14.042969 C 11.753906 14.371094 11.878906 14.597656 11.980469 14.597656 C 12 14.597656 12.027344 14.582031 12.03125 14.5625 C 12.039062 14.542969 12.039062 14.046875 12.03125 13.460938 C 12.019531 12.546875 12.023438 12.34375 12.054688 12.050781 C 12.113281 11.5625 12.15625 11.375 12.242188 11.230469 C 12.335938 11.070312 12.566406 10.855469 12.75 10.757812 C 12.957031 10.644531 13.796875 10.390625 14.292969 10.285156 C 14.554688 10.230469 14.632812 10.199219 14.890625 10.03125 C 15.25 9.796875 15.46875 9.742188 15.765625 9.800781 C 15.980469 9.84375 16.285156 9.980469 16.496094 10.136719 C 16.582031 10.195312 16.773438 10.367188 16.925781 10.507812 C 17.253906 10.828125 17.363281 10.90625 17.449219 10.886719 C 17.523438 10.867188 17.59375 10.757812 17.625 10.597656 C 17.660156 10.429688 17.632812 10.390625 17.410156 10.234375 C 17.304688 10.164062 17.101562 10.011719 16.960938 9.894531 C 16.695312 9.679688 16.484375 9.566406 16.230469 9.492188 C 16.039062 9.4375 15.449219 9.425781 15.214844 9.46875 Z M 15.214844 9.46875 "/>
<path style=" stroke:none;fill-rule:nonzero;fill:rgb(0%,0%,0%);fill-opacity:1;" d="M 14.132812 10.789062 C 13.660156 10.894531 13.214844 11.203125 12.957031 11.597656 C 12.828125 11.800781 12.695312 12.105469 12.695312 12.21875 L 12.691406 12.300781 L 12.902344 12.320312 C 13.019531 12.328125 13.222656 12.328125 13.359375 12.320312 C 13.691406 12.292969 13.765625 12.300781 14.082031 12.394531 C 14.472656 12.507812 14.609375 12.527344 14.867188 12.496094 C 15.316406 12.445312 15.605469 12.359375 16.046875 12.144531 C 16.261719 12.039062 16.359375 11.980469 16.4375 11.894531 C 16.882812 11.414062 16.882812 11.414062 16.832031 11.414062 C 16.773438 11.414062 16.664062 11.46875 16.558594 11.542969 C 16.453125 11.621094 16.40625 11.632812 16.34375 11.589844 L 16.285156 11.550781 L 16.332031 11.503906 C 16.390625 11.4375 16.523438 11.21875 16.523438 11.1875 C 16.523438 11.171875 16.46875 11.1875 16.40625 11.222656 C 16.226562 11.308594 15.9375 11.324219 15.9375 11.242188 C 15.9375 11.226562 15.976562 11.15625 16.023438 11.089844 C 16.070312 11.019531 16.101562 10.957031 16.09375 10.953125 C 16.089844 10.945312 16.035156 10.964844 15.96875 10.992188 C 15.835938 11.050781 15.660156 11.074219 15.613281 11.039062 C 15.582031 11.019531 15.582031 11.007812 15.605469 10.953125 C 15.621094 10.917969 15.628906 10.886719 15.625 10.882812 C 15.621094 10.878906 15.554688 10.886719 15.476562 10.902344 C 15.339844 10.925781 15.320312 10.921875 15.101562 10.847656 C 14.898438 10.78125 14.835938 10.769531 14.578125 10.765625 C 14.382812 10.757812 14.234375 10.765625 14.132812 10.789062 Z M 14.367188 11.027344 C 14.367188 11.03125 14.335938 11.054688 14.292969 11.074219 C 14.183594 11.132812 13.996094 11.320312 13.941406 11.417969 C 13.839844 11.621094 13.914062 11.957031 14.09375 12.117188 C 14.140625 12.15625 14.171875 12.195312 14.160156 12.195312 C 14.148438 12.195312 14 12.160156 13.835938 12.117188 C 13.613281 12.0625 13.480469 12.042969 13.328125 12.039062 L 13.121094 12.039062 L 13.128906 11.929688 C 13.152344 11.695312 13.34375 11.445312 13.683594 11.21875 C 13.910156 11.066406 14.042969 11.015625 14.222656 11.015625 C 14.300781 11.015625 14.367188 11.019531 14.367188 11.027344 Z M 15.664062 11.347656 C 16.015625 11.585938 16.195312 11.753906 16.144531 11.804688 C 16.128906 11.824219 16.0625 11.855469 15.996094 11.882812 C 15.933594 11.90625 15.734375 11.988281 15.5625 12.0625 C 15.195312 12.214844 15.054688 12.242188 15.257812 12.117188 C 15.40625 12.027344 15.464844 11.925781 15.484375 11.734375 C 15.496094 11.625 15.488281 11.585938 15.4375 11.480469 C 15.402344 11.40625 15.332031 11.300781 15.277344 11.242188 L 15.183594 11.132812 L 15.261719 11.132812 C 15.320312 11.132812 15.417969 11.1875 15.664062 11.347656 Z M 15 11.191406 C 15.03125 11.230469 15.0625 11.4375 15.035156 11.4375 C 15.015625 11.4375 14.789062 11.269531 14.789062 11.253906 C 14.789062 11.246094 14.804688 11.222656 14.828125 11.199219 C 14.875 11.144531 14.960938 11.144531 15 11.191406 Z M 14.636719 11.941406 C 14.585938 12.085938 14.566406 12.117188 14.53125 12.105469 C 14.476562 12.09375 14.40625 12.015625 14.417969 11.984375 C 14.429688 11.957031 14.679688 11.746094 14.691406 11.757812 C 14.699219 11.765625 14.671875 11.84375 14.636719 11.941406 Z M 14.636719 11.941406 "/>
<path style=" stroke:none;fill-rule:nonzero;fill:rgb(0%,0%,0%);fill-opacity:1;" d="M 7.160156 10.8125 C 7.082031 10.832031 6.957031 10.867188 6.878906 10.894531 C 6.722656 10.957031 6.695312 10.960938 6.519531 10.929688 C 6.402344 10.914062 6.390625 10.914062 6.402344 10.957031 C 6.4375 11.074219 6.4375 11.074219 6.335938 11.082031 C 6.277344 11.085938 6.183594 11.066406 6.085938 11.027344 C 6 10.996094 5.929688 10.972656 5.929688 10.980469 C 5.929688 10.984375 5.96875 11.046875 6.011719 11.117188 C 6.054688 11.1875 6.09375 11.257812 6.09375 11.269531 C 6.09375 11.28125 6.054688 11.304688 6.011719 11.320312 C 5.914062 11.355469 5.746094 11.324219 5.601562 11.25 C 5.550781 11.222656 5.5 11.203125 5.484375 11.203125 C 5.449219 11.203125 5.546875 11.371094 5.644531 11.488281 C 5.710938 11.5625 5.71875 11.585938 5.695312 11.617188 C 5.652344 11.667969 5.605469 11.65625 5.414062 11.542969 C 5.265625 11.457031 5.132812 11.410156 5.132812 11.449219 C 5.132812 11.476562 5.542969 11.855469 5.699219 11.972656 C 5.949219 12.164062 6.144531 12.273438 6.402344 12.367188 C 6.742188 12.496094 6.929688 12.53125 7.277344 12.53125 C 7.566406 12.535156 7.597656 12.53125 7.875 12.449219 C 8.320312 12.3125 8.453125 12.300781 8.867188 12.347656 C 9.289062 12.398438 9.34375 12.390625 9.335938 12.257812 C 9.332031 12.066406 9.019531 11.542969 8.757812 11.285156 C 8.488281 11.019531 8.210938 10.878906 7.84375 10.8125 C 7.59375 10.769531 7.351562 10.769531 7.160156 10.8125 Z M 8.136719 11.140625 C 8.503906 11.304688 8.800781 11.617188 8.859375 11.902344 C 8.894531 12.070312 8.882812 12.101562 8.792969 12.074219 C 8.726562 12.058594 8.289062 12.117188 7.96875 12.183594 L 7.886719 12.199219 L 7.984375 12.09375 C 8.101562 11.960938 8.140625 11.820312 8.128906 11.628906 C 8.117188 11.449219 8.035156 11.328125 7.835938 11.179688 C 7.753906 11.121094 7.691406 11.070312 7.691406 11.0625 C 7.683594 11.027344 8.019531 11.085938 8.136719 11.140625 Z M 6.734375 11.28125 C 6.570312 11.449219 6.515625 11.570312 6.515625 11.734375 C 6.515625 11.804688 6.53125 11.898438 6.546875 11.941406 C 6.582031 12.027344 6.695312 12.132812 6.8125 12.1875 C 6.855469 12.207031 6.882812 12.234375 6.875 12.246094 C 6.851562 12.285156 6.707031 12.261719 6.617188 12.199219 C 6.5 12.121094 6.324219 12.039062 6.074219 11.945312 C 5.960938 11.90625 5.871094 11.863281 5.867188 11.847656 C 5.847656 11.789062 6.03125 11.601562 6.269531 11.4375 C 6.605469 11.210938 6.703125 11.15625 6.78125 11.15625 L 6.851562 11.15625 Z M 7.191406 11.234375 L 7.246094 11.289062 L 7.132812 11.375 C 7.074219 11.425781 7.011719 11.460938 7 11.460938 C 6.96875 11.460938 6.992188 11.257812 7.03125 11.214844 C 7.074219 11.164062 7.132812 11.171875 7.191406 11.234375 Z M 7.5 11.910156 L 7.628906 12.027344 L 7.5625 12.085938 C 7.527344 12.121094 7.484375 12.144531 7.46875 12.140625 C 7.449219 12.132812 7.414062 12.042969 7.351562 11.84375 C 7.324219 11.765625 7.355469 11.78125 7.5 11.910156 Z M 7.5 11.910156 "/>
<path style=" stroke:none;fill-rule:nonzero;fill:rgb(0%,0%,0%);fill-opacity:1;" d="M 9.753906 14.941406 C 9.542969 15.132812 9.460938 15.421875 9.511719 15.765625 L 9.535156 15.925781 L 9.394531 16.09375 C 9.230469 16.289062 9.03125 16.574219 9.050781 16.59375 C 9.054688 16.597656 9.148438 16.546875 9.25 16.476562 C 9.484375 16.320312 9.667969 16.246094 9.863281 16.230469 C 9.941406 16.226562 10.007812 16.214844 10.007812 16.207031 C 10.007812 16.199219 9.953125 16.121094 9.890625 16.039062 C 9.777344 15.894531 9.773438 15.882812 9.773438 15.742188 C 9.773438 15.65625 9.785156 15.535156 9.800781 15.46875 C 9.824219 15.355469 9.84375 15.324219 9.988281 15.183594 C 10.175781 15.007812 10.179688 14.980469 10.035156 14.90625 C 9.90625 14.839844 9.859375 14.847656 9.753906 14.941406 Z M 9.753906 14.941406 "/>
<path style=" stroke:none;fill-rule:nonzero;fill:rgb(0%,0%,0%);fill-opacity:1;" d="M 10.234375 15.378906 C 10.128906 15.464844 10.074219 15.730469 10.128906 15.898438 C 10.171875 16.03125 10.191406 16.039062 10.351562 15.984375 L 10.496094 15.9375 L 10.644531 15.996094 C 10.808594 16.0625 11.027344 16.097656 11.046875 16.0625 C 11.058594 16.050781 11.011719 16.015625 10.953125 15.984375 C 10.785156 15.902344 10.605469 15.722656 10.480469 15.515625 C 10.414062 15.40625 10.355469 15.332031 10.332031 15.332031 C 10.3125 15.332031 10.269531 15.351562 10.234375 15.378906 Z M 10.234375 15.378906 "/>
<path style=" stroke:none;fill-rule:nonzero;fill:rgb(0%,0%,0%);fill-opacity:1;" d="M 11.996094 15.371094 C 11.976562 15.394531 11.914062 15.492188 11.851562 15.59375 C 11.734375 15.78125 11.652344 15.859375 11.460938 15.957031 C 11.394531 15.992188 11.347656 16.027344 11.355469 16.039062 C 11.382812 16.082031 11.554688 16.0625 11.742188 16 C 11.914062 15.945312 11.941406 15.9375 12.0625 15.964844 C 12.21875 15.996094 12.246094 15.980469 12.28125 15.847656 C 12.328125 15.675781 12.242188 15.394531 12.125 15.355469 C 12.046875 15.324219 12.035156 15.324219 11.996094 15.371094 Z M 11.996094 15.371094 "/>
<path style=" stroke:none;fill-rule:nonzero;fill:rgb(0%,0%,0%);fill-opacity:1;" d="M 12.679688 15.875 C 12.679688 15.984375 12.589844 16.085938 12.421875 16.144531 C 12.363281 16.167969 12.308594 16.195312 12.296875 16.203125 C 12.289062 16.210938 12.367188 16.234375 12.472656 16.257812 C 12.6875 16.300781 12.964844 16.425781 13.140625 16.558594 C 13.210938 16.609375 13.269531 16.652344 13.277344 16.652344 C 13.296875 16.652344 13.167969 16.410156 13.082031 16.285156 C 12.949219 16.097656 12.722656 15.824219 12.699219 15.824219 C 12.6875 15.824219 12.679688 15.847656 12.679688 15.875 Z M 12.679688 15.875 "/>
<path style=" stroke:none;fill-rule:nonzero;fill:rgb(0%,0%,0%);fill-opacity:1;" d="M 11.042969 16.335938 C 10.949219 16.449219 10.910156 16.628906 10.941406 16.800781 C 10.996094 17.09375 11.09375 17.164062 11.277344 17.039062 C 11.375 16.96875 11.460938 16.816406 11.460938 16.707031 C 11.460938 16.667969 11.4375 16.601562 11.40625 16.550781 C 11.347656 16.449219 11.164062 16.25 11.136719 16.25 C 11.125 16.25 11.082031 16.289062 11.042969 16.335938 Z M 11.042969 16.335938 "/>
<path style=" stroke:none;fill-rule:nonzero;fill:rgb(0%,0%,0%);fill-opacity:1;" d="M 10.148438 17.195312 C 9.570312 17.363281 8.484375 17.765625 8.484375 17.804688 C 8.484375 17.832031 8.796875 17.933594 9.011719 17.984375 C 9.363281 18.0625 9.496094 18.050781 9.972656 17.917969 L 10.230469 17.847656 L 10.722656 17.925781 L 11.214844 18 L 11.660156 17.925781 C 11.90625 17.886719 12.125 17.855469 12.15625 17.855469 C 12.179688 17.855469 12.332031 17.890625 12.496094 17.9375 C 12.871094 18.046875 13 18.046875 13.40625 17.953125 C 13.84375 17.847656 13.921875 17.828125 13.921875 17.804688 C 13.921875 17.765625 12.148438 17.179688 11.949219 17.152344 C 11.863281 17.144531 11.8125 17.15625 11.652344 17.226562 C 11.546875 17.273438 11.398438 17.347656 11.328125 17.394531 C 11.257812 17.441406 11.1875 17.46875 11.171875 17.460938 C 11.15625 17.453125 11.019531 17.359375 10.859375 17.257812 C 10.707031 17.15625 10.566406 17.074219 10.554688 17.078125 C 10.542969 17.078125 10.363281 17.128906 10.148438 17.195312 Z M 10.148438 17.195312 "/>
<path style=" stroke:none;fill-rule:nonzero;fill:rgb(0%,0%,0%);fill-opacity:1;" d="M 10.175781 18.589844 C 10.128906 18.640625 10.144531 18.667969 10.289062 18.804688 C 10.367188 18.878906 10.429688 18.949219 10.429688 18.96875 C 10.429688 19.003906 10.214844 19.445312 10.148438 19.542969 C 10.101562 19.617188 10.101562 19.625 10.136719 19.636719 C 10.191406 19.660156 10.328125 19.613281 10.488281 19.515625 C 10.945312 19.230469 11.089844 19.1875 11.574219 19.203125 L 11.898438 19.210938 L 12.1875 19.355469 C 12.347656 19.4375 12.480469 19.5 12.484375 19.496094 C 12.488281 19.492188 12.453125 19.417969 12.40625 19.332031 C 12.292969 19.097656 12.296875 18.996094 12.4375 18.777344 C 12.496094 18.683594 12.539062 18.601562 12.53125 18.59375 C 12.523438 18.585938 12.40625 18.605469 12.265625 18.640625 C 11.820312 18.746094 11.503906 18.800781 11.257812 18.8125 C 10.996094 18.828125 10.890625 18.804688 10.46875 18.640625 C 10.238281 18.550781 10.214844 18.550781 10.175781 18.589844 Z M 10.175781 18.589844 "/>
</g>
</svg>
