<?xml version="1.0" encoding="UTF-8"?>
<svg xmlns="http://www.w3.org/2000/svg" xmlns:xlink="http://www.w3.org/1999/xlink" width="28px" height="28px" viewBox="0 0 28 28" version="1.1">
<g id="surface1">
<path style=" stroke:none;fill-rule:nonzero;fill:rgb(93.72549%,80%,0%);fill-opacity:1;" d="M 21.4375 14 C 21.4375 18.109375 18.109375 21.4375 14 21.4375 C 9.890625 21.4375 6.5625 18.109375 6.5625 14 C 6.5625 9.890625 9.890625 6.5625 14 6.5625 C 18.109375 6.5625 21.4375 9.890625 21.4375 14 Z M 21.4375 14 "/>
<path style="fill:none;stroke-width:3;stroke-linecap:round;stroke-linejoin:miter;stroke:rgb(93.72549%,80%,0%);stroke-opacity:1;stroke-miterlimit:10;" d="M 32 5 L 32 11 " transform="matrix(0.4375,0,0,0.4375,0,0)"/>
<path style="fill:none;stroke-width:3;stroke-linecap:round;stroke-linejoin:miter;stroke:rgb(93.72549%,80%,0%);stroke-opacity:1;stroke-miterlimit:10;" d="M 32 53 L 32 59 " transform="matrix(0.4375,0,0,0.4375,0,0)"/>
<path style="fill:none;stroke-width:3;stroke-linecap:round;stroke-linejoin:miter;stroke:rgb(93.72549%,80%,0%);stroke-opacity:1;stroke-miterlimit:10;" d="M 59 32 L 53 32 " transform="matrix(0.4375,0,0,0.4375,0,0)"/>
<path style="fill:none;stroke-width:3;stroke-linecap:round;stroke-linejoin:miter;stroke:rgb(93.72549%,80%,0%);stroke-opacity:1;stroke-miterlimit:10;" d="M 11 32 L 5 32 " transform="matrix(0.4375,0,0,0.4375,0,0)"/>
<path style="fill:none;stroke-width:3;stroke-linecap:round;stroke-linejoin:miter;stroke:rgb(93.72549%,80%,0%);stroke-opacity:1;stroke-miterlimit:10;" d="M 51.089286 12.910714 L 46.848214 17.151786 " transform="matrix(0.4375,0,0,0.4375,0,0)"/>
<path style="fill:none;stroke-width:3;stroke-linecap:round;stroke-linejoin:miter;stroke:rgb(93.72549%,80%,0%);stroke-opacity:1;stroke-miterlimit:10;" d="M 17.151786 46.848214 L 12.910714 51.089286 " transform="matrix(0.4375,0,0,0.4375,0,0)"/>
<path style="fill:none;stroke-width:3;stroke-linecap:round;stroke-linejoin:miter;stroke:rgb(93.72549%,80%,0%);stroke-opacity:1;stroke-miterlimit:10;" d="M 51.089286 51.089286 L 46.848214 46.848214 " transform="matrix(0.4375,0,0,0.4375,0,0)"/>
<path style="fill:none;stroke-width:3;stroke-linecap:round;stroke-linejoin:miter;stroke:rgb(93.72549%,80%,0%);stroke-opacity:1;stroke-miterlimit:10;" d="M 17.151786 17.151786 L 12.910714 12.910714 " transform="matrix(0.4375,0,0,0.4375,0,0)"/>
</g>
</svg>
