<?xml version="1.0" encoding="UTF-8"?>
<svg xmlns="http://www.w3.org/2000/svg" xmlns:xlink="http://www.w3.org/1999/xlink" width="15pt" height="13pt" viewBox="0 0 15 13" version="1.1">
<g id="surface1">
<path style=" stroke:none;fill-rule:nonzero;fill:rgb(0%,0%,0%);fill-opacity:1;" d="M 5.859375 0.28125 C 5.738281 0.320312 5.394531 0.457031 5.257812 0.523438 C 5.160156 0.570312 5.066406 0.613281 5.050781 0.617188 C 5 0.628906 4.914062 0.695312 4.875 0.742188 C 4.773438 0.886719 4.75 1.109375 4.800781 1.425781 C 4.808594 1.480469 4.8125 1.527344 4.8125 1.527344 C 4.8125 1.53125 4.753906 1.515625 4.683594 1.496094 C 4.515625 1.449219 4.292969 1.4375 4.195312 1.464844 C 4.074219 1.5 4 1.59375 3.984375 1.722656 L 3.980469 1.785156 L 3.921875 1.785156 C 3.851562 1.78125 3.800781 1.757812 3.710938 1.675781 C 3.613281 1.582031 3.59375 1.574219 3.511719 1.613281 C 3.441406 1.648438 3.214844 1.875 3.066406 2.054688 C 2.953125 2.195312 2.949219 2.195312 2.5625 2.234375 C 2.425781 2.246094 2.378906 2.257812 2.339844 2.277344 C 2.238281 2.335938 2.210938 2.421875 2.246094 2.613281 C 2.257812 2.675781 2.265625 2.738281 2.265625 2.75 C 2.269531 2.769531 2.242188 2.78125 2.164062 2.816406 C 1.820312 2.964844 1.621094 3.105469 1.554688 3.25 C 1.523438 3.328125 1.53125 3.445312 1.574219 3.542969 C 1.589844 3.582031 1.605469 3.613281 1.601562 3.613281 C 1.601562 3.617188 1.542969 3.644531 1.476562 3.679688 C 1.246094 3.792969 1.078125 3.925781 1.023438 4.039062 C 0.980469 4.125 0.949219 4.320312 0.949219 4.511719 C 0.949219 4.570312 0.945312 4.644531 0.941406 4.675781 L 0.933594 4.738281 L 0.859375 4.738281 C 0.761719 4.742188 0.652344 4.777344 0.589844 4.824219 C 0.472656 4.90625 0.421875 5.035156 0.421875 5.242188 C 0.421875 5.441406 0.464844 5.640625 0.570312 5.894531 C 0.597656 5.96875 0.621094 6.03125 0.621094 6.03125 C 0.621094 6.03125 0.574219 6.03125 0.519531 6.03125 C 0.425781 6.03125 0.410156 6.035156 0.367188 6.0625 C 0.277344 6.121094 0.246094 6.246094 0.265625 6.457031 C 0.296875 6.738281 0.394531 6.972656 0.585938 7.230469 L 0.664062 7.332031 L 0.632812 7.582031 C 0.605469 7.800781 0.601562 7.839844 0.617188 7.882812 C 0.632812 7.949219 0.714844 8.09375 0.824219 8.269531 C 0.894531 8.375 0.925781 8.445312 0.972656 8.574219 C 1.054688 8.804688 1.167969 9.082031 1.214844 9.179688 C 1.292969 9.332031 1.316406 9.351562 1.375 9.304688 C 1.394531 9.289062 1.410156 9.28125 1.410156 9.28125 C 1.414062 9.285156 1.429688 9.34375 1.445312 9.410156 C 1.511719 9.664062 1.609375 9.867188 1.714844 9.984375 C 1.800781 10.082031 1.867188 10.109375 1.988281 10.117188 C 2.074219 10.121094 2.085938 10.121094 2.078125 10.140625 C 2.0625 10.183594 2.058594 10.324219 2.078125 10.367188 C 2.117188 10.457031 2.230469 10.550781 2.363281 10.601562 C 2.410156 10.617188 2.964844 10.730469 3.007812 10.730469 C 3.007812 10.730469 3.003906 10.75 2.992188 10.773438 C 2.921875 10.949219 3.078125 11.261719 3.441406 11.65625 C 3.640625 11.875 3.8125 12.03125 3.949219 12.117188 C 4.015625 12.160156 4.078125 12.199219 4.085938 12.203125 C 4.125 12.21875 3.949219 11.832031 3.808594 11.597656 C 3.765625 11.519531 3.703125 11.414062 3.679688 11.359375 C 3.640625 11.28125 3.632812 11.261719 3.644531 11.242188 C 3.660156 11.210938 3.710938 11.195312 3.816406 11.1875 L 3.890625 11.179688 L 3.960938 11.316406 C 4.050781 11.484375 4.167969 11.679688 4.242188 11.78125 C 4.371094 11.953125 4.523438 12.066406 4.882812 12.242188 C 5.191406 12.394531 5.425781 12.488281 5.425781 12.457031 C 5.425781 12.445312 5.332031 12.378906 5.085938 12.207031 C 4.835938 12.03125 4.679688 11.875 4.652344 11.769531 C 4.636719 11.71875 4.609375 11.539062 4.601562 11.445312 C 4.59375 11.394531 4.597656 11.378906 4.613281 11.378906 C 4.652344 11.378906 4.890625 11.46875 4.996094 11.523438 C 5.078125 11.566406 5.125 11.597656 5.164062 11.644531 C 5.21875 11.699219 5.222656 11.71875 5.253906 11.832031 C 5.324219 12.117188 5.457031 12.285156 5.664062 12.339844 C 5.75 12.363281 5.898438 12.359375 6.023438 12.332031 C 6.058594 12.324219 6.132812 12.324219 6.195312 12.328125 C 6.386719 12.335938 6.582031 12.417969 6.785156 12.578125 C 6.917969 12.679688 6.941406 12.691406 6.953125 12.660156 C 6.964844 12.628906 6.925781 12.570312 6.824219 12.464844 C 6.714844 12.347656 6.609375 12.273438 6.488281 12.21875 C 6.382812 12.171875 6.171875 12.105469 6.097656 12.09375 C 6.039062 12.085938 6.027344 12.078125 5.949219 12 C 5.871094 11.925781 5.804688 11.832031 5.734375 11.695312 C 5.703125 11.636719 5.683594 11.542969 5.683594 11.453125 L 5.683594 11.390625 L 5.867188 11.578125 C 6.21875 11.933594 6.386719 12.027344 6.75 12.0625 C 7.117188 12.101562 7.214844 12.144531 7.496094 12.402344 C 7.675781 12.566406 7.792969 12.644531 7.902344 12.679688 C 8.058594 12.726562 8.175781 12.695312 8.417969 12.535156 C 8.6875 12.359375 8.734375 12.347656 8.925781 12.402344 C 9.117188 12.457031 9.191406 12.46875 9.308594 12.460938 C 9.464844 12.449219 9.621094 12.402344 9.78125 12.324219 C 9.992188 12.21875 10.101562 12.128906 10.058594 12.085938 C 10.046875 12.074219 9.75 12.101562 9.480469 12.136719 C 9.195312 12.175781 9.171875 12.175781 8.9375 12.09375 L 8.738281 12.023438 L 8.601562 12.023438 C 8.433594 12.023438 8.328125 12.050781 8.148438 12.140625 C 8.019531 12.203125 8.011719 12.203125 7.960938 12.191406 C 7.847656 12.167969 7.746094 12.09375 7.652344 11.960938 C 7.542969 11.8125 7.457031 11.746094 7.355469 11.722656 C 7.167969 11.679688 6.976562 11.542969 6.792969 11.328125 C 6.761719 11.292969 6.738281 11.257812 6.742188 11.257812 C 6.746094 11.25 7.203125 11.332031 7.589844 11.410156 C 7.878906 11.46875 7.933594 11.480469 8.167969 11.566406 C 8.457031 11.671875 8.558594 11.699219 8.699219 11.699219 C 8.816406 11.699219 8.921875 11.667969 9.113281 11.582031 C 9.25 11.519531 9.363281 11.480469 9.445312 11.46875 C 9.492188 11.460938 9.527344 11.472656 9.734375 11.542969 C 10.039062 11.652344 10.121094 11.679688 10.402344 11.792969 L 10.644531 11.890625 L 10.726562 11.878906 C 10.824219 11.859375 11.246094 11.71875 11.402344 11.652344 C 11.515625 11.605469 11.574219 11.558594 11.558594 11.542969 C 11.535156 11.519531 10.941406 11.441406 10.632812 11.417969 L 10.503906 11.40625 L 10.304688 11.289062 C 9.894531 11.042969 9.808594 11 9.660156 10.980469 C 9.535156 10.960938 9.414062 10.980469 9.152344 11.066406 C 8.789062 11.1875 8.730469 11.191406 8.570312 11.125 C 8.414062 11.058594 7.882812 10.824219 7.871094 10.8125 C 7.851562 10.796875 8.847656 10.644531 9.078125 10.628906 C 9.210938 10.621094 9.273438 10.632812 9.445312 10.714844 C 9.589844 10.78125 9.6875 10.8125 9.742188 10.8125 C 9.789062 10.8125 9.898438 10.773438 10.113281 10.675781 C 10.457031 10.519531 10.539062 10.511719 10.847656 10.601562 C 11.082031 10.667969 11.226562 10.71875 11.34375 10.773438 C 11.46875 10.832031 11.503906 10.828125 11.71875 10.738281 C 11.847656 10.679688 11.976562 10.695312 12.214844 10.789062 L 12.324219 10.835938 L 12.402344 10.820312 C 12.5625 10.785156 12.980469 10.621094 13.042969 10.566406 C 13.066406 10.546875 13.082031 10.53125 13.078125 10.527344 C 13.058594 10.507812 12.636719 10.453125 12.375 10.4375 C 12.25 10.425781 12.152344 10.414062 12.101562 10.398438 C 12.007812 10.371094 11.953125 10.375 11.820312 10.417969 C 11.765625 10.433594 11.691406 10.453125 11.648438 10.457031 L 11.574219 10.460938 L 11.390625 10.367188 C 11.289062 10.316406 11.160156 10.246094 11.105469 10.207031 C 10.921875 10.085938 10.769531 10.085938 10.332031 10.199219 C 10.164062 10.242188 9.988281 10.261719 9.882812 10.25 C 9.761719 10.234375 9.296875 10.058594 9.085938 9.957031 L 8.996094 9.910156 L 9.265625 9.902344 C 9.828125 9.882812 10.441406 9.847656 10.554688 9.828125 C 10.574219 9.824219 10.667969 9.796875 10.765625 9.769531 C 10.992188 9.703125 11.074219 9.691406 11.210938 9.695312 C 11.355469 9.703125 11.429688 9.734375 11.585938 9.855469 C 11.785156 10.019531 11.882812 10.050781 12.1875 10.050781 C 12.332031 10.050781 12.382812 10.046875 12.441406 10.03125 C 12.546875 10 12.644531 9.933594 12.6875 9.867188 C 12.714844 9.820312 12.730469 9.808594 12.785156 9.792969 C 12.890625 9.761719 13.242188 9.675781 13.332031 9.65625 C 13.390625 9.648438 13.417969 9.636719 13.417969 9.625 C 13.417969 9.570312 12.890625 9.4375 12.730469 9.449219 C 12.664062 9.453125 12.625 9.46875 12.453125 9.554688 C 12.179688 9.695312 12.179688 9.695312 12.066406 9.644531 C 12.015625 9.625 11.917969 9.574219 11.851562 9.53125 C 11.609375 9.382812 11.570312 9.363281 11.484375 9.335938 C 11.304688 9.277344 11.171875 9.28125 10.90625 9.359375 C 10.6875 9.421875 10.585938 9.429688 10.4375 9.40625 C 10.097656 9.34375 9.933594 9.261719 9.878906 9.117188 C 9.851562 9.046875 9.824219 8.808594 9.839844 8.78125 C 9.847656 8.769531 9.882812 8.78125 9.992188 8.84375 C 10.335938 9.042969 10.648438 9.140625 10.847656 9.105469 C 10.953125 9.085938 11.082031 9.035156 11.214844 8.957031 C 11.53125 8.769531 11.667969 8.726562 11.855469 8.753906 C 11.960938 8.769531 12.042969 8.800781 12.183594 8.890625 C 12.390625 9.023438 12.527344 9.070312 12.628906 9.042969 C 12.71875 9.023438 12.769531 8.988281 12.875 8.882812 C 12.988281 8.773438 13.054688 8.722656 13.125 8.695312 C 13.203125 8.667969 13.339844 8.675781 13.472656 8.707031 C 13.621094 8.746094 13.660156 8.746094 13.777344 8.699219 C 13.941406 8.632812 14.050781 8.554688 14.019531 8.527344 C 14.003906 8.511719 13.75 8.4375 13.617188 8.40625 C 13.554688 8.394531 13.476562 8.371094 13.441406 8.355469 C 13.390625 8.328125 13.367188 8.324219 13.308594 8.328125 C 13.226562 8.332031 13.105469 8.386719 12.984375 8.464844 C 12.945312 8.492188 12.878906 8.53125 12.835938 8.554688 C 12.621094 8.664062 12.496094 8.640625 12.246094 8.453125 C 12.082031 8.332031 12.015625 8.300781 11.898438 8.292969 C 11.773438 8.285156 11.691406 8.300781 11.480469 8.382812 C 11.261719 8.460938 10.773438 8.585938 10.675781 8.585938 C 10.492188 8.585938 10.335938 8.46875 10.214844 8.242188 C 10.167969 8.15625 10.109375 7.996094 10.117188 7.988281 C 10.121094 7.984375 10.179688 7.996094 10.25 8.011719 C 10.484375 8.066406 10.589844 8.082031 10.757812 8.074219 C 10.953125 8.070312 11.039062 8.042969 11.332031 7.894531 C 11.59375 7.761719 11.714844 7.722656 11.859375 7.714844 C 11.964844 7.710938 11.984375 7.710938 12.175781 7.765625 C 12.5 7.855469 12.53125 7.851562 12.796875 7.730469 C 12.871094 7.695312 12.960938 7.660156 12.992188 7.65625 C 13.097656 7.632812 13.191406 7.667969 13.355469 7.792969 C 13.480469 7.882812 13.5 7.898438 13.566406 7.921875 C 13.6875 7.96875 13.683594 7.972656 13.832031 7.84375 C 13.90625 7.777344 14.015625 7.679688 14.070312 7.625 C 14.195312 7.503906 14.1875 7.492188 14.015625 7.535156 C 13.953125 7.550781 13.867188 7.566406 13.816406 7.574219 C 13.722656 7.589844 13.742188 7.597656 13.546875 7.476562 C 13.355469 7.359375 13.078125 7.277344 12.886719 7.277344 C 12.789062 7.277344 12.710938 7.292969 12.519531 7.355469 C 12.367188 7.410156 12.21875 7.433594 12.144531 7.417969 C 12.078125 7.40625 11.851562 7.292969 11.730469 7.210938 L 11.632812 7.144531 L 11.539062 7.148438 C 11.421875 7.15625 11.328125 7.191406 11.160156 7.296875 C 10.839844 7.496094 10.714844 7.511719 10.582031 7.367188 C 10.492188 7.265625 10.367188 7.101562 10.375 7.089844 C 10.378906 7.089844 10.460938 7.082031 10.566406 7.074219 C 11.003906 7.046875 11.347656 6.976562 11.519531 6.878906 C 11.550781 6.863281 11.617188 6.820312 11.671875 6.785156 C 11.808594 6.699219 11.902344 6.664062 12.023438 6.648438 C 12.171875 6.632812 12.253906 6.652344 12.503906 6.773438 C 12.722656 6.878906 12.816406 6.910156 12.917969 6.910156 C 13.003906 6.910156 13.171875 6.867188 13.335938 6.800781 C 13.507812 6.730469 13.644531 6.695312 13.769531 6.675781 C 13.875 6.660156 13.988281 6.667969 14.5 6.734375 C 14.601562 6.746094 14.691406 6.753906 14.691406 6.75 C 14.695312 6.75 14.691406 6.730469 14.6875 6.71875 C 14.660156 6.65625 14.292969 6.449219 14.097656 6.382812 C 13.921875 6.324219 13.851562 6.335938 13.289062 6.511719 C 13.226562 6.53125 13.179688 6.535156 13.019531 6.539062 C 12.828125 6.539062 12.824219 6.539062 12.726562 6.5 C 12.675781 6.480469 12.578125 6.433594 12.515625 6.398438 C 12.394531 6.332031 12.292969 6.28125 12.195312 6.25 C 12.117188 6.226562 11.878906 6.226562 11.097656 6.25 C 10.777344 6.257812 10.5 6.261719 10.476562 6.261719 C 10.4375 6.257812 10.445312 6.25 10.570312 6.199219 C 11.046875 5.992188 11.207031 5.917969 11.339844 5.835938 C 11.5625 5.695312 11.617188 5.671875 11.726562 5.671875 C 11.828125 5.671875 11.929688 5.710938 12.121094 5.816406 C 12.320312 5.925781 12.332031 5.933594 12.488281 5.976562 C 12.679688 6.03125 12.851562 6.0625 12.957031 6.066406 C 13.046875 6.066406 13.054688 6.066406 13.175781 6.003906 C 13.246094 5.96875 13.328125 5.929688 13.359375 5.910156 C 13.386719 5.890625 13.441406 5.867188 13.476562 5.855469 C 13.539062 5.832031 13.574219 5.832031 13.917969 5.855469 C 14.117188 5.867188 14.242188 5.835938 14.316406 5.75 C 14.363281 5.695312 14.375 5.664062 14.351562 5.640625 C 14.34375 5.628906 14.277344 5.605469 14.210938 5.589844 C 14.035156 5.539062 13.925781 5.496094 13.769531 5.40625 C 13.589844 5.304688 13.574219 5.304688 13.386719 5.402344 L 13.25 5.476562 L 13.097656 5.492188 C 12.875 5.511719 12.527344 5.511719 12.441406 5.488281 C 12.339844 5.464844 12.226562 5.40625 12.078125 5.304688 C 11.914062 5.195312 11.8125 5.144531 11.710938 5.121094 C 11.558594 5.085938 11.464844 5.117188 11.25 5.265625 C 11.183594 5.3125 11.097656 5.363281 11.066406 5.375 C 10.9375 5.425781 10.746094 5.414062 10.554688 5.347656 C 10.449219 5.304688 10.261719 5.21875 10.25 5.203125 C 10.238281 5.179688 10.277344 5.007812 10.3125 4.933594 C 10.351562 4.855469 10.394531 4.8125 10.460938 4.800781 C 10.523438 4.785156 10.898438 4.851562 10.972656 4.890625 C 11.019531 4.914062 11.164062 4.90625 11.378906 4.863281 C 11.570312 4.828125 11.738281 4.820312 11.847656 4.851562 C 11.890625 4.863281 12.007812 4.910156 12.105469 4.957031 C 12.320312 5.0625 12.351562 5.070312 12.480469 5.070312 C 12.617188 5.070312 12.726562 5.046875 13.003906 4.964844 C 13.285156 4.878906 13.3125 4.875 13.5 4.933594 C 14.039062 5.105469 14.117188 5.121094 14.167969 5.09375 C 14.230469 5.0625 14.226562 5.046875 14.160156 4.976562 C 14.066406 4.875 13.835938 4.710938 13.679688 4.632812 C 13.449219 4.515625 13.316406 4.507812 13.007812 4.585938 C 12.691406 4.671875 12.585938 4.664062 12.285156 4.523438 C 12.105469 4.441406 12.042969 4.421875 11.933594 4.410156 C 11.8125 4.398438 11.730469 4.414062 11.550781 4.472656 C 11.410156 4.519531 11.386719 4.523438 11.28125 4.523438 C 11.132812 4.523438 11.089844 4.503906 10.976562 4.378906 C 10.8125 4.199219 10.765625 4.160156 10.703125 4.128906 C 10.640625 4.101562 10.621094 4.097656 10.507812 4.097656 C 10.359375 4.101562 10.257812 4.125 10.066406 4.207031 C 10.003906 4.234375 9.953125 4.253906 9.953125 4.253906 C 9.945312 4.242188 10.15625 4.035156 10.238281 3.976562 C 10.390625 3.855469 10.554688 3.796875 10.6875 3.816406 C 10.722656 3.820312 10.84375 3.855469 10.957031 3.894531 C 11.070312 3.929688 11.207031 3.96875 11.257812 3.976562 C 11.351562 3.988281 11.359375 3.988281 11.496094 3.953125 C 11.578125 3.929688 11.746094 3.878906 11.867188 3.835938 C 12.066406 3.769531 12.105469 3.761719 12.183594 3.761719 C 12.34375 3.761719 12.542969 3.820312 12.773438 3.929688 C 12.902344 3.988281 12.90625 3.992188 12.957031 3.976562 C 13.035156 3.957031 13.308594 3.820312 13.503906 3.703125 C 13.742188 3.558594 13.8125 3.492188 13.71875 3.492188 C 13.636719 3.492188 13.296875 3.539062 13.132812 3.574219 C 13.042969 3.59375 12.949219 3.613281 12.929688 3.617188 C 12.902344 3.621094 12.835938 3.601562 12.707031 3.554688 C 12.335938 3.425781 12.222656 3.394531 12.09375 3.394531 C 11.976562 3.394531 11.851562 3.425781 11.679688 3.488281 C 11.527344 3.546875 11.398438 3.582031 11.296875 3.59375 C 11.203125 3.601562 11.117188 3.582031 10.941406 3.507812 C 10.871094 3.476562 10.769531 3.433594 10.714844 3.414062 C 10.589844 3.359375 10.464844 3.339844 10.363281 3.359375 C 10.273438 3.375 10.199219 3.410156 10.089844 3.492188 C 10.046875 3.523438 9.980469 3.5625 9.945312 3.582031 C 9.886719 3.605469 9.867188 3.609375 9.796875 3.605469 C 9.699219 3.597656 9.566406 3.546875 9.433594 3.46875 C 9.269531 3.367188 9.269531 3.375 9.414062 3.292969 C 9.679688 3.136719 9.917969 3.035156 10.140625 2.984375 C 10.289062 2.949219 10.4375 2.957031 10.628906 3.003906 C 10.742188 3.03125 10.789062 3.035156 10.917969 3.035156 C 11.058594 3.035156 11.070312 3.035156 11.136719 3.003906 C 11.171875 2.984375 11.253906 2.929688 11.320312 2.882812 C 11.53125 2.726562 11.632812 2.699219 11.855469 2.722656 C 12.011719 2.738281 12.125 2.777344 12.253906 2.859375 C 12.367188 2.933594 12.421875 2.945312 12.585938 2.933594 C 12.855469 2.914062 13.308594 2.742188 13.308594 2.660156 C 13.308594 2.628906 13.269531 2.621094 12.972656 2.601562 C 12.582031 2.574219 12.507812 2.554688 12.335938 2.429688 C 12.210938 2.339844 12.152344 2.304688 12.058594 2.277344 C 11.988281 2.253906 11.96875 2.25 11.820312 2.257812 C 11.515625 2.269531 11.449219 2.292969 11.242188 2.4375 C 10.988281 2.617188 10.824219 2.640625 10.558594 2.546875 C 10.199219 2.414062 10.140625 2.414062 9.785156 2.53125 C 9.679688 2.566406 9.554688 2.597656 9.511719 2.605469 C 9.363281 2.632812 9.042969 2.609375 8.75 2.550781 C 8.644531 2.53125 8.304688 2.453125 8.296875 2.445312 C 8.296875 2.445312 8.332031 2.394531 8.378906 2.339844 C 8.539062 2.148438 8.6875 2.050781 8.890625 1.996094 C 8.988281 1.96875 9.03125 1.964844 9.195312 1.964844 C 9.410156 1.964844 9.441406 1.96875 9.6875 2.082031 C 10.097656 2.273438 10.238281 2.261719 10.597656 2.027344 C 10.859375 1.851562 11.003906 1.8125 11.183594 1.859375 C 11.285156 1.886719 11.453125 1.875 11.5625 1.835938 C 11.675781 1.796875 11.792969 1.71875 11.890625 1.609375 C 12.007812 1.488281 12.054688 1.390625 12.003906 1.371094 C 11.992188 1.367188 11.890625 1.375 11.777344 1.390625 C 11.457031 1.433594 11.347656 1.433594 11.183594 1.402344 L 11.042969 1.375 L 10.976562 1.40625 C 10.929688 1.429688 10.859375 1.488281 10.757812 1.585938 C 10.667969 1.671875 10.582031 1.746094 10.546875 1.761719 C 10.417969 1.828125 10.195312 1.851562 10.019531 1.8125 C 9.972656 1.800781 9.800781 1.746094 9.640625 1.691406 C 9.039062 1.488281 8.929688 1.484375 8.378906 1.667969 C 7.953125 1.8125 7.910156 1.820312 7.640625 1.820312 C 7.390625 1.820312 7.238281 1.808594 6.890625 1.761719 L 6.664062 1.730469 L 6.597656 1.679688 C 6.46875 1.582031 6.386719 1.46875 6.386719 1.386719 C 6.386719 1.324219 6.414062 1.324219 6.667969 1.367188 C 6.84375 1.402344 6.914062 1.410156 7.03125 1.40625 C 7.167969 1.40625 7.1875 1.40625 7.300781 1.367188 C 7.367188 1.34375 7.519531 1.28125 7.640625 1.226562 C 7.761719 1.171875 7.914062 1.109375 7.980469 1.085938 C 8.105469 1.046875 8.105469 1.046875 8.203125 1.058594 C 8.335938 1.078125 8.488281 1.128906 8.710938 1.230469 C 9.039062 1.378906 9.15625 1.410156 9.382812 1.398438 C 9.515625 1.394531 9.574219 1.382812 9.910156 1.304688 C 10.605469 1.136719 10.882812 1.046875 10.765625 1.019531 C 10.707031 1.007812 10.207031 0.953125 9.960938 0.9375 L 9.699219 0.917969 L 9.527344 0.847656 C 9.09375 0.675781 8.765625 0.59375 8.382812 0.5625 C 8.1875 0.546875 7.976562 0.5625 7.828125 0.59375 C 7.738281 0.617188 7.601562 0.679688 7.414062 0.789062 C 7.253906 0.882812 7.160156 0.921875 7.03125 0.957031 C 6.859375 1 6.746094 0.980469 6.476562 0.84375 C 6.304688 0.757812 6.226562 0.730469 6.140625 0.714844 C 6.105469 0.707031 6.097656 0.714844 6.027344 0.785156 C 5.949219 0.867188 5.730469 1.121094 5.542969 1.351562 C 5.449219 1.46875 5.445312 1.472656 5.421875 1.453125 C 5.320312 1.363281 5.320312 1.066406 5.417969 0.882812 C 5.488281 0.746094 5.667969 0.609375 5.855469 0.542969 C 5.9375 0.519531 5.964844 0.515625 6.125 0.515625 C 6.269531 0.511719 6.316406 0.519531 6.402344 0.539062 C 6.625 0.597656 6.804688 0.597656 6.929688 0.535156 C 6.988281 0.507812 7.027344 0.476562 7.019531 0.46875 C 7.015625 0.464844 6.921875 0.449219 6.808594 0.4375 C 6.570312 0.40625 6.175781 0.34375 6 0.304688 C 5.933594 0.289062 5.867188 0.277344 5.859375 0.28125 Z M 5.636719 1.898438 C 6.652344 1.945312 7.484375 2.253906 8.242188 2.867188 C 8.96875 3.445312 9.503906 4.210938 9.765625 5.03125 C 10.042969 5.894531 10.054688 6.910156 9.800781 7.792969 C 9.589844 8.523438 9.1875 9.183594 8.601562 9.757812 C 8.125 10.222656 7.613281 10.554688 7.035156 10.769531 C 6.214844 11.078125 5.21875 11.132812 4.339844 10.917969 C 3.992188 10.832031 3.582031 10.675781 3.296875 10.515625 L 3.207031 10.46875 L 3.257812 10.421875 C 3.332031 10.355469 3.460938 10.296875 3.570312 10.277344 C 3.742188 10.246094 4.125 10.261719 4.550781 10.3125 C 4.679688 10.328125 4.792969 10.34375 4.800781 10.34375 C 4.835938 10.34375 4.8125 10.320312 4.714844 10.273438 C 4.484375 10.15625 4.214844 10.078125 3.863281 10.023438 C 3.617188 9.988281 3.386719 9.976562 2.925781 9.976562 L 2.507812 9.980469 L 2.464844 9.941406 C 2.433594 9.90625 2.425781 9.894531 2.433594 9.871094 C 2.453125 9.792969 2.539062 9.746094 2.710938 9.726562 C 2.808594 9.714844 2.847656 9.714844 2.910156 9.726562 C 3.089844 9.765625 3.128906 9.761719 3.25 9.679688 C 3.492188 9.523438 3.542969 9.519531 3.957031 9.636719 C 4.175781 9.699219 4.429688 9.753906 4.4375 9.738281 C 4.445312 9.726562 4.175781 9.453125 3.996094 9.292969 C 3.84375 9.160156 3.710938 9.070312 3.667969 9.070312 C 3.613281 9.070312 3.421875 9.121094 3.261719 9.183594 C 3.011719 9.28125 2.894531 9.300781 2.789062 9.269531 C 2.742188 9.253906 2.644531 9.238281 2.109375 9.167969 C 1.75 9.117188 1.714844 9.113281 1.695312 9.089844 C 1.683594 9.074219 1.675781 9.054688 1.675781 9.042969 C 1.675781 8.988281 1.90625 8.792969 1.988281 8.777344 C 2.019531 8.773438 2.039062 8.78125 2.097656 8.816406 C 2.183594 8.867188 2.324219 8.917969 2.433594 8.9375 C 2.570312 8.964844 2.816406 8.949219 3.066406 8.898438 C 3.179688 8.878906 3.304688 8.855469 3.34375 8.851562 C 3.386719 8.84375 3.410156 8.835938 3.40625 8.828125 C 3.398438 8.804688 3.28125 8.730469 3.191406 8.691406 C 3.074219 8.640625 2.898438 8.601562 2.691406 8.578125 L 2.515625 8.558594 L 2.425781 8.492188 C 2.378906 8.457031 2.289062 8.390625 2.230469 8.34375 C 2.042969 8.191406 1.953125 8.140625 1.828125 8.117188 C 1.800781 8.113281 1.730469 8.128906 1.589844 8.167969 C 1.242188 8.261719 1.25 8.261719 1.226562 8.230469 C 1.214844 8.21875 1.207031 8.195312 1.207031 8.179688 C 1.207031 8.132812 1.269531 8.058594 1.34375 8.023438 C 1.40625 7.992188 1.421875 7.988281 1.546875 7.992188 C 1.621094 7.992188 1.785156 8.007812 1.917969 8.023438 C 2.335938 8.082031 2.511719 8.070312 2.839844 7.960938 C 3.082031 7.878906 3.460938 7.683594 3.453125 7.644531 C 3.445312 7.601562 3.324219 7.601562 3.011719 7.648438 C 2.8125 7.675781 2.5 7.691406 2.40625 7.679688 C 2.304688 7.664062 2.195312 7.617188 2.085938 7.535156 C 1.882812 7.382812 1.863281 7.382812 1.394531 7.375 C 1.183594 7.371094 1.003906 7.367188 0.992188 7.363281 C 0.976562 7.363281 0.960938 7.34375 0.953125 7.324219 C 0.941406 7.292969 0.941406 7.285156 0.96875 7.265625 C 1 7.242188 1.101562 7.214844 1.238281 7.195312 C 1.425781 7.167969 1.460938 7.160156 1.523438 7.136719 C 1.558594 7.121094 1.628906 7.085938 1.683594 7.050781 C 1.800781 6.976562 1.882812 6.945312 1.984375 6.9375 C 2.085938 6.929688 2.164062 6.945312 2.402344 7.023438 C 2.703125 7.121094 2.78125 7.136719 2.960938 7.136719 C 3.1875 7.136719 3.363281 7.09375 3.585938 6.984375 C 3.722656 6.914062 3.820312 6.828125 3.820312 6.769531 C 3.820312 6.75 3.816406 6.734375 3.804688 6.734375 C 3.796875 6.734375 3.726562 6.757812 3.644531 6.792969 C 3.417969 6.882812 3.246094 6.90625 3.078125 6.867188 C 2.984375 6.851562 2.75 6.738281 2.46875 6.574219 C 2.128906 6.382812 2.023438 6.359375 1.730469 6.425781 C 1.515625 6.476562 1.417969 6.476562 1.273438 6.425781 C 1.007812 6.335938 0.890625 6.222656 0.890625 6.054688 C 0.890625 5.988281 0.890625 5.984375 0.953125 5.925781 C 0.988281 5.890625 1.050781 5.847656 1.097656 5.824219 C 1.167969 5.789062 1.191406 5.785156 1.28125 5.78125 C 1.375 5.777344 1.390625 5.78125 1.457031 5.8125 C 1.496094 5.832031 1.597656 5.890625 1.675781 5.945312 C 1.882812 6.082031 1.914062 6.09375 2.113281 6.109375 C 2.527344 6.136719 2.75 6.109375 2.695312 6.042969 C 2.65625 5.996094 2.496094 5.90625 2.1875 5.75 C 1.824219 5.570312 1.808594 5.554688 1.738281 5.402344 C 1.574219 5.042969 1.546875 5.011719 1.300781 4.941406 C 1.234375 4.921875 1.175781 4.902344 1.167969 4.894531 C 1.152344 4.878906 1.171875 4.8125 1.203125 4.789062 C 1.246094 4.753906 1.425781 4.6875 1.929688 4.515625 C 2.417969 4.351562 2.601562 4.28125 2.726562 4.21875 C 2.9375 4.109375 3.050781 4.113281 3.527344 4.226562 C 3.804688 4.292969 3.945312 4.3125 4.035156 4.292969 C 4.101562 4.28125 4.203125 4.222656 4.300781 4.140625 C 4.378906 4.074219 4.496094 4 4.566406 3.96875 C 4.660156 3.921875 4.984375 3.871094 5.273438 3.855469 L 5.433594 3.847656 L 5.375 3.824219 C 5.214844 3.75 4.964844 3.703125 4.734375 3.703125 C 4.609375 3.703125 4.566406 3.707031 4.40625 3.746094 C 4.308594 3.769531 4.164062 3.808594 4.089844 3.835938 C 4.015625 3.859375 3.941406 3.882812 3.921875 3.886719 C 3.878906 3.894531 3.597656 3.839844 3.398438 3.785156 C 3.324219 3.765625 3.167969 3.726562 3.054688 3.695312 L 2.84375 3.640625 L 2.550781 3.667969 C 2.34375 3.683594 2.1875 3.691406 2.035156 3.6875 L 1.8125 3.683594 L 1.886719 3.605469 C 1.945312 3.546875 1.980469 3.523438 2.035156 3.503906 C 2.128906 3.46875 2.285156 3.433594 2.410156 3.425781 C 2.535156 3.417969 2.960938 3.433594 3.285156 3.464844 L 3.515625 3.484375 L 3.636719 3.457031 C 3.882812 3.402344 4.429688 3.203125 4.429688 3.167969 C 4.429688 3.15625 4.375 3.164062 4.140625 3.207031 C 3.925781 3.25 3.730469 3.269531 3.65625 3.261719 C 3.582031 3.25 3.269531 3.15625 3.101562 3.09375 C 2.945312 3.03125 2.847656 3.019531 2.609375 3.019531 C 2.523438 3.019531 2.449219 3.015625 2.449219 3.007812 C 2.449219 3.003906 2.460938 2.992188 2.480469 2.980469 C 2.515625 2.953125 2.640625 2.941406 3.023438 2.925781 C 3.621094 2.898438 3.710938 2.890625 3.9375 2.847656 C 4.058594 2.828125 4.171875 2.804688 4.195312 2.800781 C 4.226562 2.796875 4.296875 2.808594 4.429688 2.84375 C 4.699219 2.910156 4.945312 2.949219 4.910156 2.917969 C 4.886719 2.902344 4.609375 2.742188 4.503906 2.6875 C 4.246094 2.554688 4.132812 2.53125 3.816406 2.542969 C 3.570312 2.550781 3.3125 2.535156 3.222656 2.507812 L 3.171875 2.492188 L 3.265625 2.4375 C 3.355469 2.382812 3.359375 2.382812 3.457031 2.382812 C 3.667969 2.382812 3.796875 2.402344 3.960938 2.453125 C 4.199219 2.527344 4.210938 2.527344 4.535156 2.445312 C 4.863281 2.359375 4.960938 2.34375 5.058594 2.351562 C 5.152344 2.359375 5.4375 2.433594 5.515625 2.46875 C 5.59375 2.503906 5.617188 2.496094 5.585938 2.445312 C 5.558594 2.402344 5.386719 2.28125 5.285156 2.226562 C 5.234375 2.203125 5.160156 2.171875 5.117188 2.164062 C 5.046875 2.144531 5.027344 2.144531 4.867188 2.164062 C 4.769531 2.175781 4.644531 2.191406 4.582031 2.203125 C 4.492188 2.222656 4.449219 2.222656 4.34375 2.214844 C 4.144531 2.199219 3.949219 2.15625 3.972656 2.128906 C 3.976562 2.125 4.023438 2.113281 4.074219 2.097656 C 4.15625 2.078125 4.203125 2.074219 4.6875 2.074219 C 5.074219 2.074219 5.214844 2.070312 5.222656 2.0625 C 5.234375 2.039062 5.191406 2.011719 5.074219 1.96875 C 5.015625 1.949219 4.96875 1.925781 4.96875 1.921875 C 4.96875 1.90625 4.960938 1.910156 5.1875 1.898438 C 5.289062 1.894531 5.378906 1.890625 5.386719 1.890625 C 5.390625 1.886719 5.503906 1.894531 5.636719 1.898438 Z M 5.636719 1.898438 "/>
<path style=" stroke:none;fill-rule:nonzero;fill:rgb(0%,0%,0%);fill-opacity:1;" d="M 3.28125 4.632812 C 3.058594 4.660156 2.785156 4.78125 2.570312 4.9375 C 2.46875 5.015625 2.414062 5.078125 2.378906 5.160156 C 2.34375 5.238281 2.351562 5.273438 2.402344 5.285156 C 2.480469 5.304688 2.632812 5.210938 2.855469 5.007812 C 2.949219 4.925781 3.136719 4.832031 3.25 4.804688 C 3.394531 4.777344 3.5 4.8125 3.667969 4.953125 C 3.722656 4.996094 3.804688 5.058594 3.851562 5.09375 C 3.941406 5.152344 4.011719 5.175781 4.285156 5.226562 C 4.425781 5.25 4.484375 5.277344 4.613281 5.375 C 4.769531 5.496094 4.992188 5.75 5.066406 5.890625 C 5.097656 5.949219 5.109375 6.125 5.097656 6.324219 C 5.089844 6.453125 5.082031 6.480469 5.039062 6.59375 C 5.007812 6.679688 4.992188 6.738281 4.992188 6.777344 C 4.992188 6.910156 5.109375 6.980469 5.234375 6.921875 C 5.339844 6.875 5.359375 6.816406 5.328125 6.636719 C 5.316406 6.574219 5.304688 6.410156 5.296875 6.277344 C 5.28125 5.921875 5.246094 5.71875 5.179688 5.589844 C 5.160156 5.550781 4.988281 5.398438 4.855469 5.300781 C 4.789062 5.253906 4.664062 5.191406 4.386719 5.066406 C 4.253906 5.003906 4.136719 4.9375 3.996094 4.847656 C 3.886719 4.773438 3.773438 4.707031 3.746094 4.691406 C 3.632812 4.644531 3.421875 4.617188 3.28125 4.632812 Z M 3.28125 4.632812 "/>
<path style=" stroke:none;fill-rule:nonzero;fill:rgb(0%,0%,0%);fill-opacity:1;" d="M 7.609375 4.734375 C 7.480469 4.757812 7.371094 4.792969 7.191406 4.871094 C 7.074219 4.921875 6.96875 4.953125 6.828125 4.988281 C 6.578125 5.046875 6.378906 5.128906 6.078125 5.296875 L 5.957031 5.367188 L 5.90625 5.476562 C 5.878906 5.535156 5.84375 5.617188 5.828125 5.664062 L 5.800781 5.746094 L 5.804688 6.332031 C 5.808594 6.902344 5.808594 6.917969 5.835938 7.023438 C 5.878906 7.183594 5.941406 7.300781 5.988281 7.300781 C 6 7.300781 6.011719 7.292969 6.015625 7.28125 C 6.019531 7.269531 6.019531 7.023438 6.015625 6.730469 C 6.007812 6.273438 6.011719 6.171875 6.027344 6.027344 C 6.058594 5.78125 6.078125 5.6875 6.121094 5.613281 C 6.167969 5.535156 6.285156 5.425781 6.375 5.378906 C 6.480469 5.320312 6.898438 5.195312 7.148438 5.144531 C 7.277344 5.117188 7.316406 5.097656 7.445312 5.015625 C 7.625 4.898438 7.734375 4.871094 7.882812 4.898438 C 7.992188 4.921875 8.140625 4.992188 8.25 5.070312 C 8.292969 5.097656 8.386719 5.183594 8.464844 5.253906 C 8.625 5.414062 8.683594 5.453125 8.726562 5.445312 C 8.761719 5.433594 8.796875 5.378906 8.8125 5.300781 C 8.832031 5.214844 8.816406 5.195312 8.703125 5.117188 C 8.652344 5.082031 8.550781 5.007812 8.480469 4.949219 C 8.347656 4.839844 8.242188 4.78125 8.117188 4.746094 C 8.019531 4.71875 7.722656 4.710938 7.609375 4.734375 Z M 7.609375 4.734375 "/>
<path style=" stroke:none;fill-rule:nonzero;fill:rgb(0%,0%,0%);fill-opacity:1;" d="M 7.066406 5.394531 C 6.832031 5.449219 6.605469 5.601562 6.480469 5.796875 C 6.414062 5.902344 6.347656 6.050781 6.347656 6.109375 L 6.347656 6.148438 L 6.453125 6.160156 C 6.511719 6.164062 6.613281 6.164062 6.679688 6.160156 C 6.84375 6.144531 6.882812 6.152344 7.042969 6.195312 C 7.238281 6.253906 7.304688 6.261719 7.433594 6.25 C 7.660156 6.222656 7.800781 6.179688 8.023438 6.070312 C 8.132812 6.019531 8.179688 5.988281 8.21875 5.945312 C 8.441406 5.707031 8.441406 5.707031 8.414062 5.707031 C 8.386719 5.707031 8.332031 5.734375 8.28125 5.773438 C 8.226562 5.8125 8.203125 5.816406 8.171875 5.792969 L 8.140625 5.777344 L 8.164062 5.75 C 8.195312 5.71875 8.261719 5.609375 8.261719 5.59375 C 8.261719 5.585938 8.234375 5.59375 8.203125 5.609375 C 8.113281 5.65625 7.96875 5.660156 7.96875 5.621094 C 7.96875 5.613281 7.988281 5.578125 8.011719 5.542969 C 8.035156 5.507812 8.050781 5.480469 8.046875 5.476562 C 8.046875 5.472656 8.015625 5.480469 7.984375 5.496094 C 7.917969 5.523438 7.828125 5.535156 7.804688 5.519531 C 7.792969 5.511719 7.789062 5.503906 7.800781 5.476562 C 7.8125 5.460938 7.816406 5.445312 7.8125 5.441406 C 7.8125 5.4375 7.777344 5.445312 7.738281 5.449219 C 7.671875 5.464844 7.660156 5.460938 7.550781 5.425781 C 7.449219 5.390625 7.417969 5.382812 7.289062 5.382812 C 7.191406 5.378906 7.117188 5.382812 7.066406 5.394531 Z M 7.183594 5.511719 C 7.183594 5.515625 7.167969 5.527344 7.144531 5.539062 C 7.09375 5.566406 6.996094 5.660156 6.972656 5.710938 C 6.921875 5.8125 6.957031 5.976562 7.046875 6.058594 C 7.070312 6.078125 7.085938 6.097656 7.078125 6.097656 C 7.074219 6.097656 7 6.082031 6.917969 6.058594 C 6.808594 6.03125 6.742188 6.019531 6.664062 6.019531 L 6.558594 6.019531 L 6.566406 5.964844 C 6.578125 5.847656 6.671875 5.722656 6.84375 5.609375 C 6.957031 5.53125 7.019531 5.507812 7.109375 5.507812 C 7.152344 5.507812 7.183594 5.507812 7.183594 5.511719 Z M 7.832031 5.675781 C 8.007812 5.792969 8.097656 5.878906 8.070312 5.902344 C 8.0625 5.910156 8.03125 5.929688 8 5.941406 C 7.964844 5.953125 7.867188 5.992188 7.78125 6.03125 C 7.597656 6.105469 7.527344 6.121094 7.628906 6.058594 C 7.703125 6.011719 7.734375 5.960938 7.742188 5.867188 C 7.75 5.8125 7.746094 5.792969 7.71875 5.738281 C 7.703125 5.703125 7.664062 5.652344 7.640625 5.621094 L 7.589844 5.566406 L 7.628906 5.566406 C 7.660156 5.566406 7.707031 5.59375 7.832031 5.675781 Z M 7.5 5.59375 C 7.515625 5.617188 7.53125 5.71875 7.519531 5.71875 C 7.507812 5.71875 7.394531 5.632812 7.394531 5.625 C 7.394531 5.625 7.402344 5.609375 7.414062 5.597656 C 7.4375 5.574219 7.480469 5.570312 7.5 5.59375 Z M 7.320312 5.96875 C 7.292969 6.042969 7.285156 6.058594 7.265625 6.054688 C 7.238281 6.046875 7.203125 6.007812 7.207031 5.992188 C 7.214844 5.980469 7.339844 5.875 7.347656 5.878906 C 7.347656 5.882812 7.335938 5.921875 7.320312 5.96875 Z M 7.320312 5.96875 "/>
<path style=" stroke:none;fill-rule:nonzero;fill:rgb(0%,0%,0%);fill-opacity:1;" d="M 3.582031 5.40625 C 3.542969 5.414062 3.476562 5.433594 3.441406 5.449219 C 3.359375 5.480469 3.347656 5.480469 3.257812 5.464844 C 3.199219 5.457031 3.195312 5.457031 3.203125 5.480469 C 3.21875 5.535156 3.21875 5.535156 3.167969 5.539062 C 3.136719 5.542969 3.089844 5.53125 3.042969 5.515625 C 3 5.496094 2.964844 5.488281 2.964844 5.488281 C 2.964844 5.492188 2.984375 5.523438 3.007812 5.558594 C 3.027344 5.59375 3.046875 5.628906 3.046875 5.636719 C 3.046875 5.640625 3.027344 5.652344 3.007812 5.660156 C 2.957031 5.675781 2.875 5.660156 2.800781 5.625 C 2.773438 5.613281 2.75 5.601562 2.742188 5.601562 C 2.726562 5.601562 2.773438 5.683594 2.820312 5.742188 C 2.855469 5.78125 2.859375 5.792969 2.847656 5.808594 C 2.824219 5.835938 2.800781 5.828125 2.707031 5.773438 C 2.632812 5.726562 2.566406 5.707031 2.566406 5.726562 C 2.566406 5.738281 2.773438 5.929688 2.851562 5.988281 C 2.972656 6.082031 3.074219 6.136719 3.203125 6.183594 C 3.371094 6.246094 3.464844 6.265625 3.640625 6.265625 C 3.78125 6.269531 3.800781 6.265625 3.9375 6.222656 C 4.160156 6.15625 4.226562 6.152344 4.433594 6.175781 C 4.644531 6.199219 4.671875 6.195312 4.667969 6.128906 C 4.664062 6.03125 4.507812 5.769531 4.378906 5.644531 C 4.242188 5.511719 4.105469 5.441406 3.921875 5.40625 C 3.796875 5.386719 3.675781 5.386719 3.582031 5.40625 Z M 4.070312 5.570312 C 4.253906 5.652344 4.402344 5.808594 4.429688 5.953125 C 4.449219 6.035156 4.441406 6.050781 4.394531 6.039062 C 4.363281 6.03125 4.144531 6.058594 3.984375 6.09375 L 3.945312 6.101562 L 3.992188 6.046875 C 4.050781 5.980469 4.070312 5.910156 4.0625 5.8125 C 4.058594 5.722656 4.019531 5.664062 3.917969 5.589844 C 3.878906 5.558594 3.84375 5.535156 3.84375 5.53125 C 3.84375 5.511719 4.007812 5.542969 4.070312 5.570312 Z M 3.367188 5.640625 C 3.285156 5.726562 3.257812 5.785156 3.257812 5.867188 C 3.257812 5.902344 3.265625 5.949219 3.273438 5.96875 C 3.292969 6.011719 3.347656 6.066406 3.40625 6.09375 C 3.429688 6.105469 3.441406 6.117188 3.4375 6.121094 C 3.425781 6.144531 3.355469 6.132812 3.308594 6.101562 C 3.25 6.0625 3.160156 6.019531 3.035156 5.972656 C 2.980469 5.953125 2.9375 5.929688 2.933594 5.925781 C 2.925781 5.894531 3.015625 5.800781 3.136719 5.71875 C 3.300781 5.605469 3.351562 5.578125 3.390625 5.578125 L 3.425781 5.578125 Z M 3.597656 5.617188 L 3.621094 5.644531 L 3.566406 5.6875 C 3.535156 5.710938 3.507812 5.730469 3.5 5.730469 C 3.484375 5.730469 3.496094 5.628906 3.515625 5.605469 C 3.535156 5.582031 3.566406 5.585938 3.597656 5.617188 Z M 3.75 5.957031 L 3.816406 6.015625 L 3.78125 6.042969 C 3.761719 6.058594 3.742188 6.070312 3.734375 6.070312 C 3.722656 6.066406 3.707031 6.023438 3.675781 5.921875 C 3.664062 5.882812 3.679688 5.890625 3.75 5.957031 Z M 3.75 5.957031 "/>
<path style=" stroke:none;fill-rule:nonzero;fill:rgb(0%,0%,0%);fill-opacity:1;" d="M 4.878906 7.46875 C 4.773438 7.566406 4.730469 7.710938 4.753906 7.882812 L 4.769531 7.964844 L 4.699219 8.046875 C 4.617188 8.144531 4.515625 8.289062 4.527344 8.296875 C 4.527344 8.300781 4.574219 8.273438 4.625 8.238281 C 4.742188 8.160156 4.835938 8.121094 4.929688 8.117188 C 4.972656 8.113281 5.003906 8.105469 5.003906 8.101562 C 5.003906 8.097656 4.976562 8.0625 4.945312 8.019531 C 4.890625 7.949219 4.886719 7.941406 4.886719 7.871094 C 4.886719 7.828125 4.894531 7.769531 4.898438 7.734375 C 4.910156 7.679688 4.921875 7.664062 4.996094 7.59375 C 5.085938 7.503906 5.089844 7.492188 5.015625 7.453125 C 4.953125 7.417969 4.929688 7.421875 4.878906 7.46875 Z M 4.878906 7.46875 "/>
<path style=" stroke:none;fill-rule:nonzero;fill:rgb(0%,0%,0%);fill-opacity:1;" d="M 5.117188 7.691406 C 5.0625 7.730469 5.035156 7.867188 5.0625 7.949219 C 5.085938 8.015625 5.09375 8.019531 5.175781 7.992188 L 5.246094 7.96875 L 5.324219 8 C 5.40625 8.03125 5.515625 8.050781 5.523438 8.03125 C 5.527344 8.027344 5.507812 8.007812 5.476562 7.992188 C 5.394531 7.953125 5.304688 7.859375 5.242188 7.757812 C 5.207031 7.703125 5.179688 7.664062 5.167969 7.664062 C 5.15625 7.664062 5.132812 7.675781 5.117188 7.691406 Z M 5.117188 7.691406 "/>
<path style=" stroke:none;fill-rule:nonzero;fill:rgb(0%,0%,0%);fill-opacity:1;" d="M 5.996094 7.683594 C 5.988281 7.695312 5.957031 7.746094 5.925781 7.796875 C 5.867188 7.890625 5.828125 7.929688 5.730469 7.980469 C 5.699219 7.996094 5.675781 8.011719 5.679688 8.019531 C 5.691406 8.039062 5.777344 8.03125 5.871094 8 C 5.957031 7.972656 5.972656 7.96875 6.03125 7.980469 C 6.109375 7.996094 6.125 7.992188 6.140625 7.921875 C 6.164062 7.835938 6.121094 7.699219 6.0625 7.675781 C 6.023438 7.660156 6.019531 7.660156 5.996094 7.683594 Z M 5.996094 7.683594 "/>
<path style=" stroke:none;fill-rule:nonzero;fill:rgb(0%,0%,0%);fill-opacity:1;" d="M 6.339844 7.9375 C 6.339844 7.992188 6.292969 8.042969 6.210938 8.074219 C 6.183594 8.085938 6.152344 8.097656 6.148438 8.101562 C 6.144531 8.105469 6.183594 8.117188 6.234375 8.128906 C 6.34375 8.148438 6.480469 8.210938 6.570312 8.28125 C 6.605469 8.304688 6.636719 8.324219 6.640625 8.324219 C 6.648438 8.324219 6.585938 8.207031 6.542969 8.144531 C 6.476562 8.050781 6.359375 7.914062 6.351562 7.914062 C 6.34375 7.914062 6.339844 7.921875 6.339844 7.9375 Z M 6.339844 7.9375 "/>
<path style=" stroke:none;fill-rule:nonzero;fill:rgb(0%,0%,0%);fill-opacity:1;" d="M 5.519531 8.167969 C 5.472656 8.226562 5.457031 8.3125 5.472656 8.402344 C 5.5 8.546875 5.546875 8.582031 5.640625 8.519531 C 5.6875 8.484375 5.730469 8.40625 5.730469 8.355469 C 5.730469 8.335938 5.71875 8.300781 5.703125 8.277344 C 5.671875 8.226562 5.582031 8.125 5.566406 8.125 C 5.5625 8.125 5.539062 8.144531 5.519531 8.167969 Z M 5.519531 8.167969 "/>
<path style=" stroke:none;fill-rule:nonzero;fill:rgb(0%,0%,0%);fill-opacity:1;" d="M 5.074219 8.597656 C 4.785156 8.679688 4.242188 8.882812 4.242188 8.902344 C 4.242188 8.914062 4.398438 8.96875 4.507812 8.992188 C 4.683594 9.03125 4.746094 9.027344 4.988281 8.960938 L 5.117188 8.921875 L 5.609375 9 L 5.832031 8.964844 C 5.953125 8.945312 6.0625 8.925781 6.078125 8.925781 C 6.089844 8.925781 6.167969 8.945312 6.246094 8.96875 C 6.4375 9.023438 6.5 9.023438 6.703125 8.976562 C 6.921875 8.925781 6.960938 8.914062 6.960938 8.902344 C 6.960938 8.882812 6.074219 8.589844 5.976562 8.578125 C 5.929688 8.570312 5.90625 8.578125 5.824219 8.613281 C 5.773438 8.636719 5.699219 8.675781 5.664062 8.695312 C 5.628906 8.71875 5.59375 8.734375 5.585938 8.730469 C 5.578125 8.726562 5.507812 8.679688 5.429688 8.628906 C 5.351562 8.578125 5.285156 8.539062 5.277344 8.539062 C 5.273438 8.539062 5.179688 8.566406 5.074219 8.597656 Z M 5.074219 8.597656 "/>
<path style=" stroke:none;fill-rule:nonzero;fill:rgb(0%,0%,0%);fill-opacity:1;" d="M 5.089844 9.292969 C 5.0625 9.320312 5.070312 9.335938 5.144531 9.402344 C 5.183594 9.4375 5.214844 9.476562 5.214844 9.484375 C 5.214844 9.503906 5.109375 9.722656 5.074219 9.773438 C 5.050781 9.808594 5.050781 9.8125 5.070312 9.820312 C 5.097656 9.832031 5.164062 9.804688 5.246094 9.757812 C 5.472656 9.617188 5.542969 9.59375 5.785156 9.601562 L 5.949219 9.605469 L 6.09375 9.679688 C 6.175781 9.71875 6.242188 9.75 6.242188 9.75 C 6.242188 9.746094 6.226562 9.710938 6.203125 9.664062 C 6.148438 9.546875 6.148438 9.496094 6.21875 9.386719 C 6.25 9.34375 6.269531 9.300781 6.265625 9.296875 C 6.261719 9.292969 6.203125 9.304688 6.132812 9.320312 C 5.910156 9.371094 5.75 9.398438 5.628906 9.40625 C 5.5 9.414062 5.445312 9.402344 5.234375 9.320312 C 5.117188 9.277344 5.109375 9.273438 5.089844 9.292969 Z M 5.089844 9.292969 "/>
</g>
</svg>
