<?xml version="1.0" encoding="UTF-8"?>
<svg xmlns="http://www.w3.org/2000/svg" xmlns:xlink="http://www.w3.org/1999/xlink" width="45pt" height="39pt" viewBox="0 0 45 39" version="1.1">
<g id="surface1">
<path style=" stroke:none;fill-rule:nonzero;fill:rgb(0%,0%,0%);fill-opacity:1;" d="M 17.578125 0.84375 C 17.210938 0.957031 16.179688 1.371094 15.765625 1.570312 C 15.480469 1.710938 15.203125 1.839844 15.152344 1.851562 C 15 1.890625 14.738281 2.082031 14.628906 2.230469 C 14.324219 2.65625 14.25 3.324219 14.398438 4.28125 C 14.425781 4.445312 14.441406 4.582031 14.4375 4.585938 C 14.433594 4.589844 14.257812 4.546875 14.046875 4.484375 C 13.550781 4.351562 12.882812 4.3125 12.582031 4.398438 C 12.21875 4.503906 12 4.78125 11.957031 5.164062 L 11.9375 5.359375 L 11.769531 5.351562 C 11.550781 5.34375 11.40625 5.269531 11.136719 5.023438 C 10.839844 4.742188 10.773438 4.722656 10.539062 4.835938 C 10.320312 4.941406 9.640625 5.621094 9.199219 6.160156 C 8.855469 6.582031 8.851562 6.582031 7.6875 6.699219 C 7.277344 6.742188 7.140625 6.769531 7.023438 6.835938 C 6.714844 7.003906 6.636719 7.269531 6.734375 7.835938 C 6.765625 8.03125 6.796875 8.21875 6.800781 8.253906 C 6.804688 8.304688 6.726562 8.347656 6.484375 8.453125 C 5.457031 8.890625 4.863281 9.316406 4.667969 9.753906 C 4.570312 9.980469 4.589844 10.339844 4.726562 10.632812 C 4.773438 10.742188 4.8125 10.839844 4.808594 10.84375 C 4.800781 10.847656 4.632812 10.933594 4.429688 11.035156 C 3.734375 11.382812 3.238281 11.777344 3.066406 12.121094 C 2.9375 12.375 2.847656 12.960938 2.847656 13.53125 C 2.847656 13.707031 2.835938 13.929688 2.828125 14.03125 L 2.804688 14.210938 L 2.578125 14.21875 C 2.289062 14.230469 1.953125 14.332031 1.765625 14.46875 C 1.417969 14.722656 1.261719 15.105469 1.261719 15.726562 C 1.261719 16.324219 1.394531 16.917969 1.703125 17.683594 C 1.792969 17.90625 1.863281 18.089844 1.863281 18.09375 C 1.863281 18.09375 1.722656 18.09375 1.554688 18.09375 C 1.277344 18.09375 1.226562 18.105469 1.101562 18.191406 C 0.828125 18.367188 0.738281 18.738281 0.800781 19.367188 C 0.890625 20.214844 1.179688 20.917969 1.753906 21.6875 L 1.988281 22 L 1.894531 22.75 C 1.8125 23.40625 1.804688 23.519531 1.84375 23.652344 C 1.902344 23.847656 2.140625 24.285156 2.472656 24.804688 C 2.679688 25.128906 2.777344 25.332031 2.917969 25.726562 C 3.164062 26.414062 3.5 27.242188 3.648438 27.542969 C 3.878906 28 3.945312 28.054688 4.128906 27.910156 C 4.179688 27.867188 4.226562 27.839844 4.234375 27.84375 C 4.234375 27.851562 4.285156 28.027344 4.339844 28.230469 C 4.535156 28.992188 4.824219 29.605469 5.148438 29.957031 C 5.40625 30.242188 5.601562 30.332031 5.96875 30.347656 C 6.226562 30.359375 6.257812 30.367188 6.238281 30.421875 C 6.183594 30.550781 6.179688 30.972656 6.230469 31.097656 C 6.34375 31.367188 6.691406 31.652344 7.09375 31.804688 C 7.234375 31.855469 8.894531 32.195312 9.015625 32.195312 C 9.023438 32.195312 9.007812 32.25 8.980469 32.316406 C 8.761719 32.84375 9.234375 33.78125 10.324219 34.96875 C 10.925781 35.628906 11.433594 36.089844 11.851562 36.355469 C 12.050781 36.484375 12.234375 36.597656 12.257812 36.605469 C 12.375 36.652344 11.84375 35.492188 11.429688 34.792969 C 11.292969 34.558594 11.113281 34.238281 11.035156 34.082031 C 10.914062 33.84375 10.898438 33.78125 10.929688 33.722656 C 10.976562 33.636719 11.132812 33.585938 11.449219 33.5625 L 11.667969 33.542969 L 11.882812 33.949219 C 12.148438 34.453125 12.5 35.035156 12.726562 35.34375 C 13.109375 35.863281 13.574219 36.195312 14.640625 36.722656 C 15.578125 37.183594 16.28125 37.464844 16.277344 37.367188 C 16.273438 37.339844 16 37.140625 15.261719 36.617188 C 14.503906 36.09375 14.042969 35.625 13.960938 35.3125 C 13.914062 35.152344 13.832031 34.617188 13.800781 34.339844 C 13.785156 34.179688 13.792969 34.140625 13.835938 34.140625 C 13.953125 34.140625 14.667969 34.40625 14.984375 34.570312 C 15.234375 34.699219 15.375 34.796875 15.496094 34.929688 C 15.652344 35.101562 15.671875 35.152344 15.757812 35.492188 C 15.96875 36.351562 16.375 36.851562 16.996094 37.023438 C 17.246094 37.09375 17.695312 37.082031 18.070312 37 C 18.179688 36.976562 18.394531 36.96875 18.578125 36.980469 C 19.160156 37.011719 19.742188 37.257812 20.359375 37.730469 C 20.757812 38.035156 20.828125 38.070312 20.859375 37.984375 C 20.894531 37.890625 20.773438 37.707031 20.476562 37.394531 C 20.140625 37.046875 19.832031 36.820312 19.464844 36.65625 C 19.152344 36.511719 18.515625 36.3125 18.289062 36.28125 C 18.121094 36.257812 18.082031 36.234375 17.84375 36.003906 C 17.613281 35.773438 17.417969 35.492188 17.203125 35.082031 C 17.105469 34.910156 17.050781 34.632812 17.050781 34.363281 L 17.050781 34.171875 L 17.601562 34.734375 C 18.652344 35.796875 19.160156 36.078125 20.25 36.191406 C 21.347656 36.304688 21.640625 36.4375 22.484375 37.203125 C 23.03125 37.703125 23.375 37.933594 23.707031 38.035156 C 24.179688 38.183594 24.523438 38.085938 25.257812 37.605469 C 26.0625 37.082031 26.199219 37.046875 26.773438 37.210938 C 27.351562 37.371094 27.578125 37.40625 27.925781 37.378906 C 28.390625 37.34375 28.859375 37.210938 29.335938 36.972656 C 29.976562 36.65625 30.300781 36.382812 30.179688 36.261719 C 30.140625 36.222656 29.25 36.300781 28.441406 36.414062 C 27.578125 36.53125 27.511719 36.523438 26.804688 36.277344 L 26.210938 36.066406 L 25.804688 36.070312 C 25.296875 36.074219 24.980469 36.15625 24.441406 36.421875 C 24.054688 36.609375 24.035156 36.613281 23.878906 36.578125 C 23.539062 36.503906 23.242188 36.277344 22.953125 35.882812 C 22.625 35.441406 22.375 35.234375 22.070312 35.167969 C 21.507812 35.042969 20.929688 34.632812 20.375 33.988281 C 20.28125 33.875 20.210938 33.777344 20.222656 33.769531 C 20.238281 33.746094 21.605469 33.992188 22.769531 34.226562 C 23.640625 34.402344 23.800781 34.445312 24.5 34.703125 C 25.371094 35.019531 25.671875 35.09375 26.101562 35.09375 C 26.453125 35.09375 26.761719 35.007812 27.34375 34.742188 C 27.753906 34.554688 28.085938 34.445312 28.339844 34.40625 C 28.480469 34.386719 28.585938 34.414062 29.199219 34.632812 C 30.121094 34.953125 30.363281 35.042969 31.210938 35.382812 L 31.929688 35.675781 L 32.179688 35.632812 C 32.476562 35.578125 33.738281 35.160156 34.203125 34.960938 C 34.539062 34.8125 34.722656 34.679688 34.671875 34.628906 C 34.605469 34.558594 32.824219 34.320312 31.898438 34.253906 L 31.507812 34.21875 L 30.914062 33.867188 C 29.679688 33.125 29.421875 33 28.984375 32.9375 C 28.605469 32.878906 28.246094 32.945312 27.453125 33.203125 C 26.367188 33.558594 26.1875 33.578125 25.707031 33.375 C 25.238281 33.179688 23.644531 32.46875 23.613281 32.441406 C 23.558594 32.390625 26.546875 31.929688 27.230469 31.886719 C 27.636719 31.859375 27.820312 31.898438 28.335938 32.140625 C 28.765625 32.34375 29.058594 32.441406 29.222656 32.441406 C 29.367188 32.441406 29.6875 32.320312 30.339844 32.023438 C 31.367188 31.554688 31.621094 31.53125 32.539062 31.800781 C 33.25 32.007812 33.675781 32.15625 34.027344 32.320312 C 34.402344 32.492188 34.507812 32.488281 35.152344 32.210938 C 35.539062 32.042969 35.929688 32.085938 36.640625 32.371094 L 36.976562 32.507812 L 37.203125 32.457031 C 37.691406 32.355469 38.9375 31.863281 39.132812 31.703125 C 39.199219 31.644531 39.242188 31.589844 39.230469 31.578125 C 39.179688 31.523438 37.914062 31.363281 37.125 31.308594 C 36.746094 31.28125 36.460938 31.242188 36.304688 31.195312 C 36.019531 31.109375 35.863281 31.121094 35.453125 31.257812 C 35.300781 31.304688 35.070312 31.355469 34.945312 31.367188 L 34.71875 31.382812 L 34.167969 31.105469 C 33.867188 30.953125 33.484375 30.734375 33.3125 30.621094 C 32.761719 30.261719 32.3125 30.257812 30.992188 30.601562 C 30.492188 30.730469 29.96875 30.789062 29.648438 30.746094 C 29.289062 30.699219 27.886719 30.179688 27.261719 29.867188 L 26.984375 29.726562 L 27.792969 29.703125 C 29.476562 29.652344 31.328125 29.546875 31.65625 29.484375 C 31.71875 29.472656 32.003906 29.394531 32.289062 29.308594 C 32.972656 29.113281 33.222656 29.070312 33.636719 29.085938 C 34.0625 29.105469 34.292969 29.203125 34.75 29.570312 C 35.359375 30.054688 35.652344 30.148438 36.5625 30.15625 C 37 30.15625 37.148438 30.144531 37.328125 30.09375 C 37.632812 30 37.933594 29.796875 38.058594 29.601562 C 38.148438 29.457031 38.191406 29.425781 38.355469 29.378906 C 38.667969 29.28125 39.722656 29.023438 40 28.972656 C 40.171875 28.941406 40.253906 28.910156 40.253906 28.878906 C 40.253906 28.710938 38.675781 28.308594 38.1875 28.347656 C 37.992188 28.363281 37.878906 28.40625 37.359375 28.667969 C 36.535156 29.082031 36.539062 29.082031 36.195312 28.9375 C 36.046875 28.875 35.753906 28.71875 35.550781 28.59375 C 34.820312 28.144531 34.714844 28.085938 34.453125 28.003906 C 33.914062 27.832031 33.519531 27.847656 32.71875 28.074219 C 32.058594 28.261719 31.757812 28.292969 31.316406 28.21875 C 30.289062 28.035156 29.796875 27.785156 29.636719 27.355469 C 29.554688 27.140625 29.476562 26.421875 29.519531 26.34375 C 29.542969 26.304688 29.644531 26.347656 29.96875 26.535156 C 31.003906 27.132812 31.949219 27.417969 32.542969 27.3125 C 32.863281 27.253906 33.246094 27.101562 33.644531 26.867188 C 34.589844 26.3125 35.007812 26.179688 35.5625 26.257812 C 35.878906 26.304688 36.125 26.402344 36.546875 26.675781 C 37.167969 27.070312 37.578125 27.214844 37.886719 27.132812 C 38.160156 27.066406 38.3125 26.964844 38.621094 26.652344 C 38.960938 26.316406 39.164062 26.164062 39.378906 26.089844 C 39.601562 26.007812 40.019531 26.023438 40.414062 26.125 C 40.867188 26.242188 40.984375 26.234375 41.332031 26.097656 C 41.828125 25.894531 42.148438 25.667969 42.058594 25.578125 C 42.015625 25.535156 41.25 25.3125 40.851562 25.222656 C 40.667969 25.183594 40.433594 25.109375 40.328125 25.0625 C 40.167969 24.984375 40.097656 24.972656 39.921875 24.984375 C 39.675781 24.996094 39.3125 25.15625 38.957031 25.398438 C 38.839844 25.480469 38.636719 25.59375 38.507812 25.664062 C 37.863281 25.988281 37.484375 25.925781 36.738281 25.363281 C 36.246094 24.992188 36.046875 24.898438 35.691406 24.878906 C 35.3125 24.855469 35.074219 24.90625 34.4375 25.144531 C 33.789062 25.378906 32.324219 25.753906 32.03125 25.753906 C 31.480469 25.753906 31.007812 25.40625 30.644531 24.730469 C 30.503906 24.464844 30.320312 23.988281 30.351562 23.960938 C 30.359375 23.949219 30.539062 23.984375 30.75 24.035156 C 31.457031 24.203125 31.765625 24.242188 32.273438 24.226562 C 32.863281 24.207031 33.117188 24.128906 33.996094 23.683594 C 34.78125 23.289062 35.140625 23.167969 35.582031 23.144531 C 35.898438 23.128906 35.949219 23.136719 36.53125 23.296875 C 37.5 23.566406 37.59375 23.558594 38.394531 23.1875 C 38.617188 23.082031 38.878906 22.980469 38.972656 22.964844 C 39.289062 22.902344 39.570312 23.007812 40.0625 23.375 C 40.4375 23.648438 40.503906 23.691406 40.699219 23.769531 C 41.0625 23.910156 41.046875 23.914062 41.5 23.527344 C 41.71875 23.332031 42.042969 23.039062 42.210938 22.875 C 42.585938 22.515625 42.566406 22.480469 42.050781 22.601562 C 41.863281 22.648438 41.597656 22.703125 41.453125 22.722656 C 41.164062 22.769531 41.222656 22.789062 40.640625 22.433594 C 40.0625 22.078125 39.234375 21.828125 38.664062 21.828125 C 38.363281 21.828125 38.128906 21.882812 37.5625 22.070312 C 37.101562 22.226562 36.660156 22.296875 36.429688 22.257812 C 36.230469 22.21875 35.558594 21.878906 35.1875 21.628906 L 34.890625 21.429688 L 34.609375 21.445312 C 34.269531 21.46875 33.984375 21.578125 33.480469 21.890625 C 32.515625 22.484375 32.144531 22.53125 31.75 22.101562 C 31.476562 21.800781 31.097656 21.300781 31.128906 21.273438 C 31.132812 21.265625 31.386719 21.242188 31.695312 21.226562 C 33.011719 21.140625 34.042969 20.929688 34.558594 20.636719 C 34.648438 20.585938 34.851562 20.457031 35.015625 20.355469 C 35.421875 20.101562 35.703125 19.992188 36.066406 19.949219 C 36.515625 19.894531 36.761719 19.957031 37.511719 20.320312 C 38.164062 20.640625 38.445312 20.730469 38.753906 20.730469 C 39.007812 20.730469 39.511719 20.601562 40.007812 20.402344 C 40.519531 20.195312 40.929688 20.082031 41.308594 20.023438 C 41.625 19.980469 41.960938 20.007812 43.503906 20.203125 C 43.808594 20.242188 44.070312 20.265625 44.078125 20.253906 C 44.089844 20.246094 44.078125 20.195312 44.058594 20.152344 C 43.976562 19.96875 42.878906 19.351562 42.292969 19.152344 C 41.761719 18.976562 41.554688 19.007812 39.867188 19.539062 C 39.675781 19.597656 39.535156 19.609375 39.058594 19.613281 C 38.488281 19.613281 38.476562 19.613281 38.183594 19.503906 C 38.023438 19.441406 37.734375 19.300781 37.542969 19.195312 C 37.179688 18.992188 36.875 18.847656 36.578125 18.753906 C 36.355469 18.683594 35.640625 18.679688 33.292969 18.746094 C 32.335938 18.769531 31.496094 18.789062 31.429688 18.78125 C 31.316406 18.769531 31.339844 18.753906 31.710938 18.59375 C 33.136719 17.980469 33.621094 17.757812 34.015625 17.503906 C 34.679688 17.082031 34.847656 17.011719 35.179688 17.011719 C 35.480469 17.011719 35.792969 17.128906 36.359375 17.449219 C 36.960938 17.78125 37 17.800781 37.460938 17.929688 C 38.035156 18.09375 38.546875 18.191406 38.867188 18.199219 C 39.136719 18.203125 39.160156 18.195312 39.53125 18.015625 C 39.742188 17.910156 39.988281 17.785156 40.074219 17.726562 C 40.164062 17.675781 40.320312 17.601562 40.425781 17.566406 C 40.621094 17.5 40.71875 17.5 41.75 17.570312 C 42.34375 17.605469 42.730469 17.503906 42.953125 17.25 C 43.089844 17.089844 43.121094 16.988281 43.054688 16.921875 C 43.027344 16.890625 42.835938 16.820312 42.625 16.765625 C 42.101562 16.621094 41.773438 16.484375 41.308594 16.21875 C 40.765625 15.914062 40.71875 15.914062 40.160156 16.210938 L 39.742188 16.429688 L 39.289062 16.472656 C 38.621094 16.539062 37.578125 16.535156 37.320312 16.46875 C 37.019531 16.390625 36.675781 16.21875 36.226562 15.917969 C 35.734375 15.589844 35.433594 15.4375 35.132812 15.367188 C 34.675781 15.261719 34.398438 15.347656 33.753906 15.792969 C 33.546875 15.9375 33.296875 16.089844 33.203125 16.125 C 32.816406 16.277344 32.242188 16.246094 31.667969 16.039062 C 31.34375 15.917969 30.78125 15.65625 30.746094 15.609375 C 30.710938 15.542969 30.832031 15.027344 30.941406 14.796875 C 31.054688 14.5625 31.1875 14.441406 31.375 14.398438 C 31.566406 14.355469 32.695312 14.554688 32.917969 14.671875 C 33.0625 14.746094 33.492188 14.71875 34.136719 14.589844 C 34.714844 14.480469 35.210938 14.464844 35.542969 14.554688 C 35.667969 14.585938 36.015625 14.730469 36.316406 14.875 C 36.964844 15.1875 37.050781 15.210938 37.445312 15.210938 C 37.851562 15.210938 38.179688 15.144531 39.007812 14.890625 C 39.851562 14.632812 39.9375 14.625 40.5 14.800781 C 42.117188 15.3125 42.347656 15.363281 42.507812 15.28125 C 42.6875 15.1875 42.683594 15.144531 42.484375 14.929688 C 42.199219 14.625 41.507812 14.128906 41.039062 13.894531 C 40.34375 13.542969 39.953125 13.519531 39.023438 13.761719 C 38.074219 14.011719 37.761719 13.988281 36.851562 13.570312 C 36.320312 13.328125 36.128906 13.265625 35.800781 13.234375 C 35.4375 13.199219 35.1875 13.238281 34.648438 13.417969 C 34.230469 13.554688 34.15625 13.566406 33.835938 13.566406 C 33.394531 13.566406 33.269531 13.507812 32.921875 13.132812 C 32.433594 12.601562 32.300781 12.480469 32.105469 12.390625 C 31.921875 12.304688 31.867188 12.292969 31.515625 12.296875 C 31.082031 12.300781 30.769531 12.378906 30.195312 12.625 C 30.015625 12.703125 29.863281 12.765625 29.859375 12.757812 C 29.828125 12.730469 30.472656 12.105469 30.710938 11.925781 C 31.175781 11.570312 31.664062 11.394531 32.058594 11.445312 C 32.167969 11.457031 32.535156 11.5625 32.871094 11.679688 C 33.207031 11.792969 33.617188 11.90625 33.769531 11.929688 C 34.046875 11.96875 34.074219 11.96875 34.492188 11.855469 C 34.730469 11.792969 35.234375 11.640625 35.605469 11.511719 C 36.195312 11.3125 36.316406 11.285156 36.546875 11.285156 C 37.03125 11.285156 37.628906 11.457031 38.324219 11.785156 C 38.707031 11.96875 38.714844 11.972656 38.875 11.929688 C 39.101562 11.867188 39.921875 11.457031 40.511719 11.105469 C 41.226562 10.671875 41.429688 10.472656 41.152344 10.472656 C 40.910156 10.472656 39.894531 10.621094 39.402344 10.726562 C 39.128906 10.78125 38.851562 10.839844 38.789062 10.851562 C 38.710938 10.863281 38.511719 10.808594 38.121094 10.667969 C 37.003906 10.277344 36.667969 10.1875 36.277344 10.1875 C 35.925781 10.1875 35.550781 10.273438 35.039062 10.46875 C 34.582031 10.644531 34.1875 10.746094 33.890625 10.777344 C 33.605469 10.804688 33.347656 10.742188 32.820312 10.519531 C 32.609375 10.429688 32.304688 10.300781 32.148438 10.238281 C 31.765625 10.074219 31.398438 10.023438 31.09375 10.078125 C 30.816406 10.128906 30.597656 10.234375 30.269531 10.476562 C 30.136719 10.570312 29.9375 10.691406 29.828125 10.742188 C 29.65625 10.820312 29.597656 10.832031 29.390625 10.816406 C 29.097656 10.789062 28.699219 10.636719 28.300781 10.402344 C 27.808594 10.105469 27.8125 10.128906 28.238281 9.882812 C 29.042969 9.40625 29.757812 9.101562 30.421875 8.949219 C 30.863281 8.847656 31.308594 8.867188 31.886719 9.007812 C 32.21875 9.089844 32.367188 9.105469 32.75 9.109375 C 33.175781 9.109375 33.214844 9.101562 33.40625 9.011719 C 33.515625 8.957031 33.765625 8.792969 33.960938 8.648438 C 34.59375 8.183594 34.894531 8.09375 35.570312 8.164062 C 36.039062 8.210938 36.371094 8.332031 36.765625 8.582031 C 37.105469 8.796875 37.265625 8.832031 37.757812 8.796875 C 38.566406 8.738281 39.921875 8.226562 39.921875 7.976562 C 39.921875 7.882812 39.804688 7.859375 38.917969 7.804688 C 37.746094 7.726562 37.527344 7.667969 37.007812 7.292969 C 36.632812 7.023438 36.453125 6.917969 36.175781 6.828125 C 35.96875 6.757812 35.90625 6.75 35.453125 6.769531 C 34.546875 6.8125 34.34375 6.875 33.730469 7.308594 C 32.960938 7.847656 32.472656 7.925781 31.679688 7.636719 C 30.601562 7.246094 30.421875 7.242188 29.355469 7.589844 C 29.035156 7.695312 28.664062 7.796875 28.53125 7.820312 C 28.089844 7.894531 27.128906 7.828125 26.242188 7.65625 C 25.929688 7.59375 24.914062 7.355469 24.894531 7.335938 C 24.886719 7.332031 25 7.183594 25.140625 7.019531 C 25.621094 6.445312 26.058594 6.152344 26.675781 5.988281 C 26.96875 5.910156 27.09375 5.898438 27.578125 5.894531 C 28.226562 5.890625 28.320312 5.910156 29.054688 6.25 C 30.289062 6.816406 30.71875 6.789062 31.789062 6.082031 C 32.582031 5.558594 33.011719 5.433594 33.554688 5.574219 C 33.859375 5.65625 34.355469 5.628906 34.6875 5.511719 C 35.027344 5.390625 35.375 5.152344 35.675781 4.832031 C 36.023438 4.460938 36.160156 4.171875 36.011719 4.113281 C 35.980469 4.101562 35.675781 4.128906 35.335938 4.171875 C 34.367188 4.296875 34.046875 4.304688 33.546875 4.210938 L 33.125 4.128906 L 32.921875 4.222656 C 32.785156 4.292969 32.578125 4.464844 32.273438 4.761719 C 32.007812 5.015625 31.746094 5.234375 31.644531 5.289062 C 31.25 5.488281 30.585938 5.550781 30.058594 5.433594 C 29.914062 5.402344 29.402344 5.242188 28.914062 5.078125 C 27.121094 4.460938 26.785156 4.457031 25.136719 5.007812 C 23.863281 5.4375 23.734375 5.464844 22.921875 5.460938 C 22.171875 5.460938 21.714844 5.421875 20.675781 5.28125 L 19.996094 5.191406 L 19.789062 5.035156 C 19.410156 4.742188 19.160156 4.402344 19.160156 4.160156 C 19.160156 3.972656 19.246094 3.96875 20 4.105469 C 20.527344 4.203125 20.738281 4.226562 21.09375 4.222656 C 21.5 4.222656 21.558594 4.214844 21.902344 4.097656 C 22.105469 4.027344 22.5625 3.839844 22.921875 3.679688 C 23.28125 3.519531 23.738281 3.332031 23.941406 3.261719 C 24.3125 3.136719 24.3125 3.136719 24.605469 3.179688 C 25.011719 3.238281 25.464844 3.390625 26.132812 3.695312 C 27.117188 4.140625 27.472656 4.230469 28.152344 4.199219 C 28.550781 4.179688 28.726562 4.148438 29.726562 3.914062 C 31.816406 3.414062 32.644531 3.140625 32.300781 3.058594 C 32.117188 3.019531 30.617188 2.863281 29.882812 2.808594 L 29.09375 2.753906 L 28.582031 2.546875 C 27.277344 2.023438 26.300781 1.78125 25.144531 1.691406 C 24.558594 1.644531 23.925781 1.683594 23.488281 1.785156 C 23.210938 1.855469 22.796875 2.042969 22.238281 2.371094 C 21.757812 2.648438 21.476562 2.769531 21.097656 2.867188 C 20.582031 3.003906 20.242188 2.9375 19.421875 2.53125 C 18.914062 2.277344 18.679688 2.191406 18.425781 2.144531 C 18.316406 2.121094 18.292969 2.140625 18.078125 2.359375 C 17.847656 2.601562 17.195312 3.363281 16.628906 4.058594 C 16.34375 4.40625 16.328125 4.417969 16.265625 4.359375 C 15.964844 4.09375 15.957031 3.199219 16.25 2.644531 C 16.46875 2.234375 17 1.824219 17.570312 1.632812 C 17.8125 1.554688 17.898438 1.542969 18.367188 1.542969 C 18.808594 1.539062 18.949219 1.554688 19.210938 1.621094 C 19.871094 1.792969 20.414062 1.789062 20.792969 1.609375 C 20.96875 1.523438 21.085938 1.433594 21.054688 1.402344 C 21.046875 1.394531 20.761719 1.351562 20.425781 1.308594 C 19.707031 1.21875 18.53125 1.027344 18 0.910156 C 17.796875 0.863281 17.605469 0.835938 17.578125 0.84375 Z M 16.914062 5.695312 C 19.960938 5.839844 22.445312 6.761719 24.730469 8.597656 C 26.902344 10.339844 28.511719 12.628906 29.300781 15.09375 C 30.125 17.683594 30.164062 20.734375 29.40625 23.375 C 28.773438 25.570312 27.5625 27.554688 25.800781 29.273438 C 24.375 30.664062 22.839844 31.660156 21.109375 32.308594 C 18.648438 33.238281 15.652344 33.398438 13.015625 32.757812 C 11.96875 32.496094 10.742188 32.027344 9.886719 31.550781 L 9.617188 31.40625 L 9.773438 31.265625 C 9.992188 31.070312 10.378906 30.886719 10.703125 30.832031 C 11.226562 30.738281 12.375 30.78125 13.65625 30.9375 C 14.042969 30.988281 14.375 31.027344 14.402344 31.027344 C 14.511719 31.027344 14.429688 30.957031 14.148438 30.816406 C 13.445312 30.46875 12.640625 30.230469 11.585938 30.070312 C 10.851562 29.960938 10.164062 29.925781 8.777344 29.933594 L 7.519531 29.941406 L 7.398438 29.820312 C 7.296875 29.722656 7.277344 29.679688 7.296875 29.609375 C 7.355469 29.375 7.617188 29.234375 8.136719 29.179688 C 8.425781 29.144531 8.546875 29.148438 8.726562 29.183594 C 9.273438 29.300781 9.390625 29.28125 9.753906 29.042969 C 10.476562 28.566406 10.632812 28.558594 11.867188 28.910156 C 12.527344 29.097656 13.285156 29.257812 13.308594 29.214844 C 13.335938 29.175781 12.527344 28.363281 11.988281 27.882812 C 11.535156 27.476562 11.136719 27.207031 11.003906 27.207031 C 10.835938 27.207031 10.265625 27.367188 9.78125 27.554688 C 9.03125 27.84375 8.6875 27.90625 8.367188 27.804688 C 8.222656 27.765625 7.933594 27.71875 6.328125 27.503906 C 5.25 27.355469 5.148438 27.339844 5.089844 27.265625 C 5.054688 27.222656 5.027344 27.160156 5.027344 27.125 C 5.027344 26.96875 5.71875 26.382812 5.960938 26.335938 C 6.058594 26.316406 6.117188 26.339844 6.289062 26.445312 C 6.554688 26.605469 6.972656 26.757812 7.296875 26.816406 C 7.714844 26.890625 8.449219 26.84375 9.195312 26.699219 C 9.542969 26.632812 9.917969 26.566406 10.03125 26.550781 C 10.164062 26.535156 10.230469 26.511719 10.21875 26.488281 C 10.195312 26.414062 9.84375 26.1875 9.578125 26.074219 C 9.21875 25.925781 8.691406 25.804688 8.070312 25.734375 L 7.546875 25.671875 L 7.28125 25.480469 C 7.132812 25.371094 6.871094 25.171875 6.691406 25.027344 C 6.132812 24.574219 5.851562 24.421875 5.484375 24.355469 C 5.398438 24.34375 5.1875 24.386719 4.765625 24.503906 C 3.722656 24.789062 3.753906 24.78125 3.683594 24.695312 C 3.648438 24.652344 3.621094 24.582031 3.621094 24.535156 C 3.621094 24.394531 3.8125 24.175781 4.03125 24.070312 C 4.222656 23.976562 4.265625 23.96875 4.640625 23.972656 C 4.867188 23.976562 5.355469 24.019531 5.75 24.074219 C 7.003906 24.246094 7.535156 24.207031 8.519531 23.878906 C 9.242188 23.636719 10.386719 23.046875 10.363281 22.929688 C 10.339844 22.808594 9.96875 22.808594 9.03125 22.941406 C 8.441406 23.023438 7.503906 23.074219 7.214844 23.035156 C 6.910156 22.996094 6.589844 22.851562 6.261719 22.609375 C 5.640625 22.152344 5.59375 22.144531 4.183594 22.121094 C 3.554688 22.113281 3.007812 22.101562 2.96875 22.09375 C 2.933594 22.085938 2.882812 22.03125 2.859375 21.96875 C 2.824219 21.875 2.828125 21.855469 2.902344 21.796875 C 3 21.722656 3.304688 21.640625 3.710938 21.582031 C 4.277344 21.5 4.378906 21.476562 4.570312 21.40625 C 4.675781 21.367188 4.890625 21.253906 5.046875 21.15625 C 5.398438 20.929688 5.652344 20.832031 5.949219 20.808594 C 6.253906 20.789062 6.496094 20.835938 7.207031 21.070312 C 8.109375 21.363281 8.347656 21.414062 8.875 21.410156 C 9.558594 21.410156 10.09375 21.28125 10.757812 20.949219 C 11.171875 20.742188 11.460938 20.484375 11.460938 20.3125 C 11.460938 20.25 11.445312 20.199219 11.417969 20.199219 C 11.394531 20.199219 11.175781 20.277344 10.933594 20.378906 C 10.257812 20.644531 9.738281 20.714844 9.226562 20.605469 C 8.949219 20.550781 8.25 20.210938 7.398438 19.722656 C 6.390625 19.144531 6.0625 19.078125 5.191406 19.277344 C 4.546875 19.425781 4.253906 19.425781 3.820312 19.28125 C 3.023438 19.011719 2.675781 18.671875 2.671875 18.167969 C 2.671875 17.960938 2.675781 17.957031 2.859375 17.777344 C 2.964844 17.675781 3.15625 17.539062 3.289062 17.472656 C 3.5 17.371094 3.574219 17.351562 3.839844 17.34375 C 4.121094 17.328125 4.164062 17.339844 4.371094 17.433594 C 4.492188 17.492188 4.789062 17.671875 5.027344 17.832031 C 5.648438 18.25 5.742188 18.28125 6.339844 18.324219 C 7.578125 18.410156 8.25 18.332031 8.082031 18.128906 C 7.972656 17.992188 7.484375 17.714844 6.566406 17.253906 C 5.476562 16.710938 5.425781 16.667969 5.214844 16.207031 C 4.726562 15.132812 4.636719 15.039062 3.90625 14.828125 C 3.707031 14.769531 3.527344 14.707031 3.507812 14.6875 C 3.453125 14.632812 3.511719 14.441406 3.609375 14.367188 C 3.738281 14.265625 4.277344 14.0625 5.78125 13.550781 C 7.253906 13.050781 7.800781 12.84375 8.183594 12.652344 C 8.808594 12.332031 9.152344 12.339844 10.582031 12.683594 C 11.40625 12.882812 11.828125 12.9375 12.101562 12.882812 C 12.304688 12.839844 12.605469 12.664062 12.902344 12.417969 C 13.140625 12.222656 13.484375 11.996094 13.695312 11.902344 C 13.980469 11.765625 14.949219 11.617188 15.820312 11.570312 L 16.296875 11.546875 L 16.121094 11.46875 C 15.648438 11.25 14.890625 11.109375 14.207031 11.109375 C 13.832031 11.109375 13.695312 11.125 13.222656 11.234375 C 12.921875 11.304688 12.492188 11.425781 12.269531 11.503906 C 12.046875 11.582031 11.820312 11.652344 11.757812 11.664062 C 11.640625 11.679688 10.789062 11.515625 10.195312 11.355469 C 9.972656 11.296875 9.507812 11.175781 9.160156 11.085938 L 8.527344 10.925781 L 7.648438 11.003906 C 7.035156 11.050781 6.5625 11.074219 6.101562 11.066406 L 5.429688 11.054688 L 5.660156 10.820312 C 5.835938 10.644531 5.9375 10.570312 6.101562 10.507812 C 6.382812 10.40625 6.855469 10.304688 7.234375 10.277344 C 7.601562 10.25 8.882812 10.304688 9.855469 10.390625 L 10.550781 10.449219 L 10.910156 10.367188 C 11.652344 10.203125 13.289062 9.613281 13.289062 9.507812 C 13.289062 9.46875 13.128906 9.492188 12.425781 9.625 C 11.78125 9.746094 11.195312 9.808594 10.972656 9.78125 C 10.746094 9.75 9.808594 9.46875 9.308594 9.28125 C 8.832031 9.097656 8.546875 9.054688 7.832031 9.054688 C 7.566406 9.054688 7.347656 9.046875 7.347656 9.027344 C 7.347656 9.015625 7.386719 8.976562 7.4375 8.941406 C 7.542969 8.863281 7.921875 8.824219 9.070312 8.773438 C 10.863281 8.699219 11.132812 8.675781 11.8125 8.546875 C 12.171875 8.480469 12.519531 8.417969 12.589844 8.40625 C 12.679688 8.386719 12.882812 8.425781 13.285156 8.527344 C 14.097656 8.730469 14.832031 8.851562 14.726562 8.757812 C 14.664062 8.707031 13.828125 8.230469 13.515625 8.066406 C 12.738281 7.664062 12.390625 7.589844 11.445312 7.625 C 10.703125 7.648438 9.941406 7.605469 9.664062 7.523438 L 9.507812 7.480469 L 9.789062 7.3125 C 10.066406 7.148438 10.078125 7.144531 10.371094 7.148438 C 11 7.148438 11.386719 7.207031 11.882812 7.359375 C 12.597656 7.582031 12.632812 7.582031 13.605469 7.332031 C 14.585938 7.074219 14.886719 7.027344 15.171875 7.050781 C 15.460938 7.082031 16.316406 7.304688 16.550781 7.410156 C 16.777344 7.515625 16.851562 7.488281 16.753906 7.339844 C 16.671875 7.210938 16.164062 6.84375 15.851562 6.683594 C 15.699219 6.609375 15.476562 6.519531 15.347656 6.488281 C 15.132812 6.433594 15.082031 6.433594 14.601562 6.488281 C 14.3125 6.523438 13.929688 6.578125 13.746094 6.613281 C 13.472656 6.664062 13.34375 6.671875 13.035156 6.648438 C 12.429688 6.597656 11.847656 6.464844 11.921875 6.386719 C 11.933594 6.375 12.066406 6.335938 12.21875 6.296875 C 12.472656 6.230469 12.605469 6.226562 14.066406 6.226562 C 15.222656 6.226562 15.648438 6.214844 15.664062 6.183594 C 15.703125 6.121094 15.570312 6.035156 15.226562 5.910156 C 15.050781 5.847656 14.90625 5.78125 14.90625 5.761719 C 14.90625 5.722656 14.878906 5.726562 15.554688 5.695312 C 15.867188 5.683594 16.136719 5.671875 16.15625 5.667969 C 16.175781 5.664062 16.515625 5.679688 16.914062 5.695312 Z M 16.914062 5.695312 "/>
<path style=" stroke:none;fill-rule:nonzero;fill:rgb(0%,0%,0%);fill-opacity:1;" d="M 9.839844 13.902344 C 9.171875 13.984375 8.351562 14.339844 7.710938 14.816406 C 7.402344 15.046875 7.242188 15.230469 7.132812 15.476562 C 7.03125 15.710938 7.050781 15.820312 7.210938 15.859375 C 7.4375 15.914062 7.898438 15.628906 8.570312 15.023438 C 8.84375 14.78125 9.410156 14.492188 9.753906 14.417969 C 10.183594 14.328125 10.5 14.4375 11.003906 14.855469 C 11.167969 14.992188 11.414062 15.179688 11.550781 15.277344 C 11.820312 15.460938 12.03125 15.523438 12.851562 15.675781 C 13.273438 15.75 13.449219 15.835938 13.835938 16.128906 C 14.3125 16.484375 14.980469 17.246094 15.195312 17.667969 C 15.289062 17.851562 15.324219 18.378906 15.289062 18.976562 C 15.269531 19.359375 15.25 19.445312 15.121094 19.78125 C 15.023438 20.039062 14.976562 20.214844 14.976562 20.332031 C 14.976562 20.734375 15.324219 20.945312 15.695312 20.769531 C 16.015625 20.621094 16.074219 20.445312 15.980469 19.90625 C 15.949219 19.71875 15.90625 19.234375 15.890625 18.832031 C 15.835938 17.761719 15.734375 17.15625 15.539062 16.769531 C 15.480469 16.648438 14.960938 16.191406 14.570312 15.90625 C 14.363281 15.761719 13.992188 15.574219 13.164062 15.195312 C 12.765625 15.015625 12.414062 14.816406 11.992188 14.539062 C 11.660156 14.324219 11.316406 14.117188 11.234375 14.078125 C 10.902344 13.929688 10.261719 13.851562 9.839844 13.902344 Z M 9.839844 13.902344 "/>
<path style=" stroke:none;fill-rule:nonzero;fill:rgb(0%,0%,0%);fill-opacity:1;" d="M 22.824219 14.199219 C 22.445312 14.273438 22.117188 14.382812 21.570312 14.613281 C 21.21875 14.761719 20.90625 14.863281 20.476562 14.960938 C 19.730469 15.136719 19.136719 15.386719 18.238281 15.890625 L 17.867188 16.105469 L 17.71875 16.425781 C 17.632812 16.601562 17.527344 16.855469 17.484375 16.992188 L 17.398438 17.234375 L 17.410156 18.992188 C 17.421875 20.707031 17.421875 20.757812 17.503906 21.066406 C 17.632812 21.554688 17.820312 21.898438 17.96875 21.898438 C 18 21.898438 18.039062 21.875 18.050781 21.84375 C 18.058594 21.8125 18.058594 21.070312 18.050781 20.191406 C 18.027344 18.820312 18.035156 18.515625 18.085938 18.078125 C 18.171875 17.34375 18.230469 17.0625 18.363281 16.84375 C 18.503906 16.605469 18.851562 16.28125 19.125 16.136719 C 19.4375 15.964844 20.691406 15.582031 21.441406 15.429688 C 21.832031 15.347656 21.949219 15.296875 22.339844 15.046875 C 22.875 14.695312 23.203125 14.609375 23.648438 14.699219 C 23.972656 14.765625 24.425781 14.972656 24.746094 15.207031 C 24.875 15.292969 25.160156 15.546875 25.390625 15.765625 C 25.878906 16.242188 26.046875 16.363281 26.171875 16.332031 C 26.285156 16.300781 26.386719 16.136719 26.4375 15.898438 C 26.492188 15.648438 26.453125 15.585938 26.113281 15.355469 C 25.957031 15.246094 25.652344 15.019531 25.441406 14.84375 C 25.042969 14.523438 24.730469 14.347656 24.34375 14.238281 C 24.058594 14.15625 23.171875 14.136719 22.824219 14.199219 Z M 22.824219 14.199219 "/>
<path style=" stroke:none;fill-rule:nonzero;fill:rgb(0%,0%,0%);fill-opacity:1;" d="M 21.199219 16.183594 C 20.492188 16.34375 19.820312 16.804688 19.4375 17.394531 C 19.242188 17.703125 19.042969 18.15625 19.039062 18.324219 L 19.039062 18.449219 L 19.351562 18.476562 C 19.53125 18.492188 19.835938 18.492188 20.039062 18.476562 C 20.535156 18.4375 20.648438 18.453125 21.125 18.589844 C 21.710938 18.761719 21.914062 18.789062 22.300781 18.746094 C 22.976562 18.667969 23.40625 18.542969 24.070312 18.214844 C 24.394531 18.058594 24.539062 17.96875 24.660156 17.839844 C 25.328125 17.121094 25.328125 17.121094 25.246094 17.121094 C 25.15625 17.121094 24.996094 17.199219 24.835938 17.316406 C 24.679688 17.433594 24.609375 17.449219 24.515625 17.382812 L 24.425781 17.328125 L 24.496094 17.253906 C 24.585938 17.15625 24.785156 16.824219 24.785156 16.78125 C 24.785156 16.757812 24.703125 16.78125 24.609375 16.832031 C 24.34375 16.964844 23.90625 16.984375 23.90625 16.863281 C 23.90625 16.839844 23.960938 16.738281 24.03125 16.632812 C 24.101562 16.527344 24.152344 16.4375 24.140625 16.429688 C 24.132812 16.417969 24.050781 16.445312 23.957031 16.484375 C 23.753906 16.574219 23.488281 16.609375 23.417969 16.558594 C 23.375 16.53125 23.371094 16.511719 23.40625 16.429688 C 23.429688 16.378906 23.445312 16.332031 23.4375 16.324219 C 23.429688 16.316406 23.328125 16.332031 23.214844 16.351562 C 23.007812 16.390625 22.980469 16.382812 22.652344 16.273438 C 22.34375 16.171875 22.253906 16.152344 21.867188 16.144531 C 21.570312 16.136719 21.355469 16.148438 21.199219 16.183594 Z M 21.550781 16.539062 C 21.550781 16.546875 21.5 16.582031 21.4375 16.613281 C 21.277344 16.699219 20.992188 16.976562 20.914062 17.128906 C 20.757812 17.433594 20.867188 17.933594 21.144531 18.175781 C 21.214844 18.238281 21.253906 18.289062 21.238281 18.289062 C 21.21875 18.289062 21.003906 18.242188 20.753906 18.175781 C 20.421875 18.09375 20.222656 18.0625 19.988281 18.058594 L 19.679688 18.058594 L 19.695312 17.898438 C 19.730469 17.539062 20.019531 17.167969 20.527344 16.824219 C 20.867188 16.597656 21.0625 16.523438 21.332031 16.519531 C 21.453125 16.519531 21.550781 16.527344 21.550781 16.539062 Z M 23.496094 17.023438 C 24.023438 17.378906 24.292969 17.632812 24.214844 17.710938 C 24.191406 17.734375 24.09375 17.785156 23.992188 17.824219 C 23.898438 17.863281 23.605469 17.980469 23.34375 18.09375 C 22.796875 18.320312 22.585938 18.359375 22.886719 18.171875 C 23.109375 18.039062 23.199219 17.886719 23.226562 17.605469 C 23.246094 17.4375 23.234375 17.378906 23.152344 17.21875 C 23.105469 17.113281 22.996094 16.953125 22.917969 16.859375 L 22.773438 16.699219 L 22.890625 16.699219 C 22.976562 16.699219 23.125 16.78125 23.496094 17.023438 Z M 22.5 16.785156 C 22.550781 16.847656 22.59375 17.15625 22.554688 17.15625 C 22.519531 17.15625 22.183594 16.902344 22.183594 16.878906 C 22.183594 16.871094 22.207031 16.832031 22.242188 16.796875 C 22.3125 16.71875 22.441406 16.714844 22.5 16.785156 Z M 21.953125 17.910156 C 21.878906 18.128906 21.851562 18.171875 21.796875 18.160156 C 21.714844 18.136719 21.609375 18.023438 21.625 17.980469 C 21.640625 17.9375 22.023438 17.621094 22.039062 17.640625 C 22.046875 17.644531 22.007812 17.765625 21.953125 17.910156 Z M 21.953125 17.910156 "/>
<path style=" stroke:none;fill-rule:nonzero;fill:rgb(0%,0%,0%);fill-opacity:1;" d="M 10.742188 16.21875 C 10.625 16.246094 10.433594 16.300781 10.320312 16.34375 C 10.082031 16.4375 10.042969 16.441406 9.777344 16.398438 C 9.601562 16.371094 9.585938 16.371094 9.605469 16.4375 C 9.652344 16.609375 9.652344 16.609375 9.507812 16.621094 C 9.414062 16.628906 9.273438 16.597656 9.128906 16.542969 C 9 16.492188 8.894531 16.460938 8.894531 16.46875 C 8.894531 16.480469 8.949219 16.570312 9.015625 16.675781 C 9.085938 16.78125 9.140625 16.886719 9.140625 16.90625 C 9.140625 16.925781 9.085938 16.960938 9.015625 16.980469 C 8.871094 17.03125 8.621094 16.984375 8.402344 16.875 C 8.324219 16.835938 8.246094 16.804688 8.226562 16.804688 C 8.171875 16.804688 8.316406 17.054688 8.464844 17.230469 C 8.5625 17.34375 8.578125 17.382812 8.542969 17.421875 C 8.476562 17.503906 8.40625 17.488281 8.121094 17.316406 C 7.898438 17.183594 7.699219 17.117188 7.699219 17.175781 C 7.699219 17.214844 8.3125 17.785156 8.550781 17.960938 C 8.921875 18.242188 9.21875 18.410156 9.605469 18.550781 C 10.113281 18.742188 10.394531 18.796875 10.914062 18.800781 C 11.347656 18.804688 11.398438 18.796875 11.8125 18.671875 C 12.480469 18.46875 12.679688 18.453125 13.300781 18.523438 C 13.933594 18.597656 14.011719 18.582031 14.007812 18.386719 C 13.996094 18.097656 13.527344 17.3125 13.132812 16.929688 C 12.730469 16.53125 12.316406 16.320312 11.761719 16.21875 C 11.390625 16.15625 11.027344 16.15625 10.742188 16.21875 Z M 12.207031 16.707031 C 12.757812 16.960938 13.203125 17.425781 13.289062 17.855469 C 13.34375 18.105469 13.324219 18.152344 13.1875 18.113281 C 13.09375 18.089844 12.433594 18.171875 11.953125 18.277344 L 11.828125 18.300781 L 11.972656 18.136719 C 12.148438 17.941406 12.214844 17.730469 12.191406 17.441406 C 12.175781 17.171875 12.054688 16.992188 11.753906 16.769531 C 11.632812 16.679688 11.535156 16.601562 11.535156 16.59375 C 11.527344 16.539062 12.027344 16.628906 12.207031 16.707031 Z M 10.101562 16.921875 C 9.859375 17.175781 9.773438 17.355469 9.773438 17.601562 C 9.773438 17.710938 9.792969 17.847656 9.824219 17.910156 C 9.875 18.039062 10.042969 18.199219 10.21875 18.28125 C 10.28125 18.3125 10.324219 18.351562 10.316406 18.367188 C 10.277344 18.429688 10.0625 18.394531 9.929688 18.300781 C 9.753906 18.183594 9.484375 18.054688 9.109375 17.917969 C 8.945312 17.863281 8.804688 17.792969 8.800781 17.773438 C 8.773438 17.683594 9.050781 17.402344 9.40625 17.15625 C 9.90625 16.816406 10.054688 16.734375 10.175781 16.734375 L 10.277344 16.734375 Z M 10.789062 16.851562 L 10.867188 16.933594 L 10.703125 17.0625 C 10.609375 17.136719 10.519531 17.195312 10.5 17.195312 C 10.457031 17.195312 10.492188 16.890625 10.546875 16.820312 C 10.609375 16.742188 10.699219 16.757812 10.789062 16.851562 Z M 11.25 17.867188 L 11.445312 18.042969 L 11.339844 18.132812 C 11.289062 18.179688 11.226562 18.214844 11.203125 18.207031 C 11.171875 18.199219 11.121094 18.066406 11.023438 17.765625 C 10.984375 17.648438 11.035156 17.671875 11.25 17.867188 Z M 11.25 17.867188 "/>
<path style=" stroke:none;fill-rule:nonzero;fill:rgb(0%,0%,0%);fill-opacity:1;" d="M 14.632812 22.410156 C 14.316406 22.699219 14.1875 23.132812 14.265625 23.644531 L 14.304688 23.890625 L 14.09375 24.140625 C 13.847656 24.433594 13.550781 24.863281 13.578125 24.886719 C 13.585938 24.898438 13.722656 24.820312 13.875 24.714844 C 14.222656 24.480469 14.5 24.367188 14.792969 24.347656 C 14.914062 24.339844 15.011719 24.320312 15.011719 24.308594 C 15.011719 24.296875 14.929688 24.183594 14.835938 24.058594 C 14.667969 23.84375 14.660156 23.828125 14.660156 23.609375 C 14.660156 23.488281 14.679688 23.304688 14.699219 23.199219 C 14.734375 23.035156 14.765625 22.988281 14.984375 22.777344 C 15.261719 22.515625 15.269531 22.472656 15.050781 22.359375 C 14.855469 22.257812 14.785156 22.269531 14.632812 22.410156 Z M 14.632812 22.410156 "/>
<path style=" stroke:none;fill-rule:nonzero;fill:rgb(0%,0%,0%);fill-opacity:1;" d="M 15.351562 23.070312 C 15.191406 23.195312 15.109375 23.597656 15.191406 23.847656 C 15.257812 24.050781 15.285156 24.058594 15.527344 23.980469 L 15.742188 23.90625 L 15.96875 23.996094 C 16.214844 24.09375 16.539062 24.148438 16.574219 24.09375 C 16.585938 24.078125 16.519531 24.023438 16.429688 23.980469 C 16.179688 23.855469 15.90625 23.582031 15.722656 23.273438 C 15.625 23.109375 15.535156 22.996094 15.5 22.996094 C 15.46875 22.996094 15.402344 23.027344 15.351562 23.070312 Z M 15.351562 23.070312 "/>
<path style=" stroke:none;fill-rule:nonzero;fill:rgb(0%,0%,0%);fill-opacity:1;" d="M 17.992188 23.054688 C 17.964844 23.089844 17.871094 23.238281 17.777344 23.386719 C 17.601562 23.675781 17.480469 23.792969 17.191406 23.9375 C 17.09375 23.984375 17.023438 24.039062 17.03125 24.058594 C 17.070312 24.121094 17.332031 24.09375 17.613281 24 C 17.871094 23.914062 17.914062 23.90625 18.09375 23.945312 C 18.328125 23.992188 18.367188 23.972656 18.421875 23.769531 C 18.492188 23.511719 18.363281 23.09375 18.191406 23.03125 C 18.070312 22.984375 18.054688 22.984375 17.992188 23.054688 Z M 17.992188 23.054688 "/>
<path style=" stroke:none;fill-rule:nonzero;fill:rgb(0%,0%,0%);fill-opacity:1;" d="M 19.019531 23.8125 C 19.019531 23.980469 18.882812 24.128906 18.632812 24.21875 C 18.546875 24.253906 18.460938 24.289062 18.445312 24.304688 C 18.433594 24.320312 18.546875 24.355469 18.707031 24.386719 C 19.035156 24.449219 19.445312 24.636719 19.710938 24.839844 C 19.8125 24.914062 19.90625 24.976562 19.914062 24.976562 C 19.949219 24.976562 19.753906 24.617188 19.625 24.429688 C 19.421875 24.148438 19.082031 23.738281 19.050781 23.738281 C 19.035156 23.738281 19.019531 23.769531 19.019531 23.8125 Z M 19.019531 23.8125 "/>
<path style=" stroke:none;fill-rule:nonzero;fill:rgb(0%,0%,0%);fill-opacity:1;" d="M 16.5625 24.507812 C 16.421875 24.675781 16.367188 24.941406 16.414062 25.203125 C 16.496094 25.640625 16.644531 25.742188 16.917969 25.554688 C 17.0625 25.453125 17.191406 25.222656 17.191406 25.0625 C 17.191406 25.003906 17.15625 24.902344 17.109375 24.828125 C 17.019531 24.675781 16.746094 24.375 16.703125 24.375 C 16.683594 24.375 16.621094 24.433594 16.5625 24.507812 Z M 16.5625 24.507812 "/>
<path style=" stroke:none;fill-rule:nonzero;fill:rgb(0%,0%,0%);fill-opacity:1;" d="M 15.222656 25.789062 C 14.355469 26.042969 12.726562 26.644531 12.726562 26.710938 C 12.726562 26.746094 13.195312 26.902344 13.515625 26.976562 C 14.046875 27.09375 14.242188 27.078125 14.960938 26.878906 L 15.34375 26.769531 L 16.085938 26.886719 L 16.820312 27 L 17.492188 26.890625 C 17.859375 26.832031 18.191406 26.78125 18.230469 26.78125 C 18.269531 26.78125 18.5 26.835938 18.742188 26.90625 C 19.308594 27.070312 19.5 27.070312 20.109375 26.929688 C 20.765625 26.773438 20.882812 26.742188 20.882812 26.710938 C 20.882812 26.648438 18.222656 25.769531 17.925781 25.730469 C 17.792969 25.714844 17.71875 25.734375 17.476562 25.839844 C 17.316406 25.910156 17.101562 26.023438 16.996094 26.089844 C 16.890625 26.160156 16.78125 26.203125 16.757812 26.191406 C 16.734375 26.179688 16.527344 26.042969 16.292969 25.890625 C 16.058594 25.738281 15.851562 25.613281 15.835938 25.617188 C 15.816406 25.617188 15.542969 25.695312 15.222656 25.789062 Z M 15.222656 25.789062 "/>
<path style=" stroke:none;fill-rule:nonzero;fill:rgb(0%,0%,0%);fill-opacity:1;" d="M 15.265625 27.882812 C 15.191406 27.957031 15.214844 28.003906 15.433594 28.207031 C 15.550781 28.316406 15.644531 28.425781 15.644531 28.449219 C 15.644531 28.507812 15.324219 29.164062 15.222656 29.316406 C 15.152344 29.421875 15.152344 29.4375 15.203125 29.457031 C 15.289062 29.492188 15.492188 29.417969 15.734375 29.269531 C 16.417969 28.847656 16.632812 28.78125 17.359375 28.804688 L 17.84375 28.816406 L 18.28125 29.035156 C 18.523438 29.15625 18.71875 29.25 18.726562 29.246094 C 18.730469 29.238281 18.679688 29.128906 18.613281 28.996094 C 18.4375 28.644531 18.445312 28.492188 18.652344 28.164062 C 18.746094 28.027344 18.808594 27.902344 18.796875 27.890625 C 18.789062 27.878906 18.609375 27.910156 18.398438 27.957031 C 17.734375 28.117188 17.253906 28.199219 16.890625 28.21875 C 16.496094 28.242188 16.335938 28.207031 15.699219 27.960938 C 15.355469 27.828125 15.324219 27.824219 15.265625 27.882812 Z M 15.265625 27.882812 "/>
</g>
</svg>
